STARTFONT 2.1
FONT -FontForge-Shadows Into Light-Book-R-Normal--28-280-72-72-P-116-ISO10646-1
SIZE 28 72 72
FONTBOUNDINGBOX 40 45 -5 -12
COMMENT "Generated by fontforge, http://fontforge.sourceforge.net"
COMMENT "Copyright (c) 2010, Kimberly Geswein (kimberlygeswein.com)"
STARTPROPERTIES 39
FOUNDRY "FontForge"
FAMILY_NAME "Shadows Into Light"
WEIGHT_NAME "Book"
SLANT "R"
SETWIDTH_NAME "Normal"
ADD_STYLE_NAME ""
PIXEL_SIZE 28
POINT_SIZE 280
RESOLUTION_X 72
RESOLUTION_Y 72
SPACING "P"
AVERAGE_WIDTH 116
CHARSET_REGISTRY "ISO10646"
CHARSET_ENCODING "1"
FONTNAME_REGISTRY ""
CHARSET_COLLECTIONS "ISO8859-2 ISO8859-9 ISO8859-4 ISO10646-1"
FONT_NAME "ShadowsIntoLight"
FACE_NAME "Shadows Into Light"
COPYRIGHT "Copyright (c) 2010, Kimberly Geswein (kimberlygeswein.com)"
FONT_VERSION "001.000"
FONT_ASCENT 22
FONT_DESCENT 6
UNDERLINE_POSITION 0
UNDERLINE_THICKNESS 0
X_HEIGHT 16
CAP_HEIGHT 19
RAW_ASCENT 799
RAW_DESCENT 200
NORM_SPACE 13
RELATIVE_WEIGHT 40
RELATIVE_SETWIDTH 50
SUPERSCRIPT_X 0
SUPERSCRIPT_Y 13
SUPERSCRIPT_SIZE 18
SUBSCRIPT_X 0
SUBSCRIPT_Y 3
SUBSCRIPT_SIZE 18
AVG_LOWERCASE_WIDTH 105
AVG_UPPERCASE_WIDTH 136
ENDPROPERTIES
CHARS 352
STARTCHAR space
ENCODING 32
SWIDTH 450 0
DWIDTH 13 0
BBX 1 1 0 0
BITMAP
00
ENDCHAR
STARTCHAR exclam
ENCODING 33
SWIDTH 137 0
DWIDTH 4 0
BBX 3 24 0 0
BITMAP
40
40
40
40
40
40
40
C0
C0
C0
C0
C0
C0
C0
40
00
00
00
00
00
00
00
20
20
ENDCHAR
STARTCHAR quotedbl
ENCODING 34
SWIDTH 212 0
DWIDTH 6 0
BBX 4 8 1 14
BITMAP
90
90
90
90
90
90
90
40
ENDCHAR
STARTCHAR numbersign
ENCODING 35
SWIDTH 450 0
DWIDTH 13 0
BBX 12 15 1 3
BITMAP
0200
0200
3200
3300
33C0
1700
7B00
7310
1360
1380
1700
1900
7100
F100
1100
ENDCHAR
STARTCHAR dollar
ENCODING 36
SWIDTH 445 0
DWIDTH 12 0
BBX 12 25 0 -3
BITMAP
0200
0600
0600
0600
0780
0700
1E00
3600
6600
C600
C600
C600
7FE0
0210
0230
0220
02C0
0380
0700
0B00
0300
0100
0100
0100
0100
ENDCHAR
STARTCHAR percent
ENCODING 37
SWIDTH 450 0
DWIDTH 13 0
BBX 12 22 0 0
BITMAP
00C0
0080
0180
7980
4900
C900
CB00
5200
6200
0200
0600
0460
0470
0450
0450
0870
0860
0840
0800
0800
0800
1000
ENDCHAR
STARTCHAR ampersand
ENCODING 38
SWIDTH 356 0
DWIDTH 10 0
BBX 9 13 0 3
BITMAP
0200
0400
0400
0400
0480
2580
7F00
4E00
8C00
9C00
7400
0400
0400
ENDCHAR
STARTCHAR quotesingle
ENCODING 39
SWIDTH 155 0
DWIDTH 4 0
BBX 2 9 1 9
BITMAP
80
C0
C0
C0
C0
C0
C0
40
40
ENDCHAR
STARTCHAR parenleft
ENCODING 40
SWIDTH 291 0
DWIDTH 8 0
BBX 8 23 0 0
BITMAP
03
06
04
0C
18
10
30
20
20
60
40
40
40
C0
C0
C0
40
40
60
20
30
18
0E
ENDCHAR
STARTCHAR parenright
ENCODING 41
SWIDTH 241 0
DWIDTH 7 0
BBX 5 21 1 0
BITMAP
80
C0
60
20
10
10
18
08
08
08
08
08
08
08
18
18
10
30
20
20
40
ENDCHAR
STARTCHAR asterisk
ENCODING 42
SWIDTH 481 0
DWIDTH 13 0
BBX 13 14 0 2
BITMAP
0200
0400
0440
04C0
4580
7F38
1FE0
0F00
FF80
0EE0
1A30
3200
2200
0200
ENDCHAR
STARTCHAR plus
ENCODING 43
SWIDTH 466 0
DWIDTH 13 0
BBX 13 13 0 3
BITMAP
0200
0400
0400
0400
0400
0438
07E0
0E00
FC00
0400
0400
0400
0400
ENDCHAR
STARTCHAR comma
ENCODING 44
SWIDTH 112 0
DWIDTH 3 0
BBX 2 6 1 -3
BITMAP
C0
C0
C0
C0
80
80
ENDCHAR
STARTCHAR hyphen
ENCODING 45
SWIDTH 399 0
DWIDTH 11 0
BBX 11 4 0 5
BITMAP
01E0
07C0
3E00
E000
ENDCHAR
STARTCHAR period
ENCODING 46
SWIDTH 128 0
DWIDTH 4 0
BBX 2 2 1 0
BITMAP
C0
C0
ENDCHAR
STARTCHAR slash
ENCODING 47
SWIDTH 306 0
DWIDTH 9 0
BBX 8 22 0 -2
BITMAP
03
03
02
02
06
04
04
0C
08
08
18
10
10
10
30
20
20
60
40
40
C0
80
ENDCHAR
STARTCHAR zero
ENCODING 48
SWIDTH 308 0
DWIDTH 9 0
BBX 7 15 1 0
BITMAP
38
6C
44
84
82
82
82
82
82
82
84
44
44
68
38
ENDCHAR
STARTCHAR one
ENCODING 49
SWIDTH 112 0
DWIDTH 3 0
BBX 1 18 1 0
BITMAP
80
80
80
80
80
80
80
80
80
80
80
80
80
80
80
80
80
80
ENDCHAR
STARTCHAR two
ENCODING 50
SWIDTH 512 0
DWIDTH 14 0
BBX 13 16 1 0
BITMAP
0E00
3E00
6200
C300
8200
0200
0200
0200
0600
0400
0C00
0800
1878
13C0
3E00
2000
ENDCHAR
STARTCHAR three
ENCODING 51
SWIDTH 461 0
DWIDTH 13 0
BBX 12 19 0 0
BITMAP
0F80
3980
6080
C100
0300
0600
0400
0FC0
1C30
3810
0010
0010
0030
0020
0060
01C0
0380
0600
0400
ENDCHAR
STARTCHAR four
ENCODING 52
SWIDTH 503 0
DWIDTH 14 0
BBX 14 22 0 0
BITMAP
0040
00C0
01C0
01C0
03C0
03C0
06C0
04C0
0CC0
08C0
10C0
30FC
67C0
F8C0
80C0
00C0
00C0
00C0
00C0
00C0
00C0
00C0
ENDCHAR
STARTCHAR five
ENCODING 53
SWIDTH 478 0
DWIDTH 13 0
BBX 13 19 0 0
BITMAP
2078
6780
F800
6000
6000
6000
6000
67C0
6CC0
7840
7040
60C0
00C0
0180
0180
0300
0600
0400
0800
ENDCHAR
STARTCHAR six
ENCODING 54
SWIDTH 375 0
DWIDTH 11 0
BBX 9 23 1 0
BITMAP
2000
3000
2000
2000
6000
6000
4000
4000
4000
4000
C000
8000
8380
8E80
8C80
9900
9100
A100
A200
A600
E400
7C00
3800
ENDCHAR
STARTCHAR seven
ENCODING 55
SWIDTH 458 0
DWIDTH 13 0
BBX 11 21 1 0
BITMAP
0060
1FE0
FC40
00C0
00C0
0080
0180
0180
0100
0100
0100
0300
0200
0200
0200
0200
0200
0200
0300
0300
0100
ENDCHAR
STARTCHAR eight
ENCODING 56
SWIDTH 333 0
DWIDTH 9 0
BBX 8 20 0 0
BITMAP
02
0F
37
27
41
41
C1
43
42
66
34
1C
0C
0E
12
11
31
21
33
1E
ENDCHAR
STARTCHAR nine
ENCODING 57
SWIDTH 475 0
DWIDTH 13 0
BBX 12 19 0 0
BITMAP
03C0
0760
0C60
10E0
31B0
61B0
4330
4630
CC30
F830
6010
0010
0010
0010
0010
0010
0010
0010
0010
ENDCHAR
STARTCHAR colon
ENCODING 58
SWIDTH 120 0
DWIDTH 3 0
BBX 1 9 1 3
BITMAP
80
80
00
00
00
00
00
80
80
ENDCHAR
STARTCHAR semicolon
ENCODING 59
SWIDTH 121 0
DWIDTH 3 0
BBX 2 11 1 -3
BITMAP
C0
00
00
00
00
C0
C0
C0
C0
80
80
ENDCHAR
STARTCHAR less
ENCODING 60
SWIDTH 409 0
DWIDTH 11 0
BBX 10 14 1 4
BITMAP
0040
00C0
0180
0300
0E00
1C00
3000
6000
C000
7000
3800
0E00
0780
01C0
ENDCHAR
STARTCHAR equal
ENCODING 61
SWIDTH 433 0
DWIDTH 12 0
BBX 11 8 1 2
BITMAP
01C0
FF00
F000
0000
03E0
1F00
F000
8000
ENDCHAR
STARTCHAR greater
ENCODING 62
SWIDTH 450 0
DWIDTH 13 0
BBX 10 15 1 3
BITMAP
E000
7000
1C00
0700
01C0
00C0
00C0
0180
0300
0600
0C00
3800
7000
E000
8000
ENDCHAR
STARTCHAR question
ENCODING 63
SWIDTH 445 0
DWIDTH 12 0
BBX 12 26 0 0
BITMAP
0180
1FE0
7830
E030
0030
0020
0060
00C0
0180
0300
0600
0C00
0800
1800
0C80
0F80
0000
0000
0000
0000
0000
0000
0000
0000
0400
0600
ENDCHAR
STARTCHAR at
ENCODING 64
SWIDTH 945 0
DWIDTH 26 0
BBX 25 25 1 0
BITMAP
001FC000
00786000
00C01000
01800800
03000C00
04000400
081E0400
18720400
30CE0400
208C0400
611C0400
43140400
42240C00
C6660800
C4C3B000
8580C000
86000000
80000000
C0000180
C0000300
C0000E00
60001800
3000E000
1F9F8000
07FC0000
ENDCHAR
STARTCHAR A
ENCODING 65
SWIDTH 390 0
DWIDTH 11 0
BBX 12 21 1 0
BITMAP
2000
3000
3000
7800
6800
6800
6C00
6400
4400
4600
4200
43F0
C380
C700
FB00
E100
C180
8080
8080
8080
00C0
ENDCHAR
STARTCHAR B
ENCODING 66
SWIDTH 537 0
DWIDTH 15 0
BBX 13 20 1 0
BITMAP
07C0
9CC0
F0C0
C080
C100
C300
4670
4FD8
5C08
7808
7010
6030
6060
20C0
2180
2300
2600
3400
3000
2000
ENDCHAR
STARTCHAR C
ENCODING 67
SWIDTH 487 0
DWIDTH 14 0
BBX 12 20 1 0
BITMAP
0F00
1980
1080
3000
2000
6000
6000
4000
4000
C000
C000
8000
8030
8030
8060
8040
80C0
C100
6600
7C00
ENDCHAR
STARTCHAR D
ENCODING 68
SWIDTH 554 0
DWIDTH 16 0
BBX 14 21 1 0
BITMAP
2000
2000
7FC0
E070
A008
200C
2004
200C
2008
2008
2018
3010
3030
3060
30C0
1180
1380
1700
1600
0C00
1800
ENDCHAR
STARTCHAR E
ENCODING 69
SWIDTH 474 0
DWIDTH 13 0
BBX 12 20 1 0
BITMAP
C3C0
CE00
FC00
F000
4000
4000
4000
4080
4300
4E00
7800
6000
6000
6030
60E0
6180
6300
6C00
7800
6000
ENDCHAR
STARTCHAR F
ENCODING 70
SWIDTH 428 0
DWIDTH 12 0
BBX 11 20 1 0
BITMAP
0020
81C0
8700
9C00
F000
C000
C000
C000
C000
C040
C180
C700
DC00
F000
E000
C000
C000
C000
4000
4000
ENDCHAR
STARTCHAR G
ENCODING 71
SWIDTH 591 0
DWIDTH 17 0
BBX 15 21 1 -3
BITMAP
01E0
0380
0400
0C00
1800
1000
3000
203E
61FC
4018
C018
8038
8038
8078
80D8
C398
FE18
3818
0018
0018
0008
ENDCHAR
STARTCHAR H
ENCODING 72
SWIDTH 424 0
DWIDTH 12 0
BBX 10 19 1 0
BITMAP
8100
8100
8180
8180
8180
8080
8180
8180
C180
C380
CC80
F880
E0C0
C0C0
C0C0
C0C0
C0C0
C040
C040
ENDCHAR
STARTCHAR I
ENCODING 73
SWIDTH 153 0
DWIDTH 4 0
BBX 3 21 1 0
BITMAP
C0
40
40
40
40
40
40
40
40
40
40
40
40
40
40
40
40
40
40
60
40
ENDCHAR
STARTCHAR J
ENCODING 74
SWIDTH 371 0
DWIDTH 10 0
BBX 9 22 0 -2
BITMAP
0100
0100
0100
0100
0100
0180
0180
0180
0180
0180
0080
0080
0080
0080
0080
0080
8080
4080
4080
2080
3B80
0E00
ENDCHAR
STARTCHAR K
ENCODING 75
SWIDTH 524 0
DWIDTH 15 0
BBX 14 19 1 0
BITMAP
8000
8040
C080
C180
C300
4200
4600
4C00
4800
5800
5000
7000
6000
6000
7FFC
6000
2000
2000
2000
ENDCHAR
STARTCHAR L
ENCODING 76
SWIDTH 537 0
DWIDTH 15 0
BBX 14 18 1 0
BITMAP
8000
C000
C000
C000
C000
C000
C000
C000
C000
C000
C000
C000
C01C
C070
C1C0
CF00
FC00
F000
ENDCHAR
STARTCHAR M
ENCODING 77
SWIDTH 682 0
DWIDTH 19 0
BBX 17 21 1 0
BITMAP
C00600
E00600
F00600
D00A00
D80A00
480A00
4C1A00
441200
461200
423300
432300
412100
41E100
40C100
60C100
600100
600100
600180
600180
600180
600180
ENDCHAR
STARTCHAR N
ENCODING 78
SWIDTH 541 0
DWIDTH 15 0
BBX 13 21 1 0
BITMAP
0030
0030
0030
8030
C010
E010
F010
F810
D810
CC10
4610
4310
4110
4190
40D0
6050
6030
6038
6018
6018
2000
ENDCHAR
STARTCHAR O
ENCODING 79
SWIDTH 382 0
DWIDTH 11 0
BBX 10 19 0 0
BITMAP
0700
0F80
18C0
10C0
3040
2040
6040
6040
6040
4040
40C0
40C0
C0C0
C080
C180
4100
6300
3E00
3C00
ENDCHAR
STARTCHAR P
ENCODING 80
SWIDTH 508 0
DWIDTH 14 0
BBX 13 22 1 0
BITMAP
6FE0
7870
E018
E018
6010
6030
4060
40C0
4380
6E00
7800
6000
6000
6000
6000
6000
6000
6000
6000
2000
2000
2000
ENDCHAR
STARTCHAR Q
ENCODING 81
SWIDTH 512 0
DWIDTH 14 0
BBX 12 21 1 0
BITMAP
1F80
3CC0
3020
6020
6020
4010
C010
C010
C010
8010
8310
8110
8190
80A0
80E0
C060
C060
4060
60B0
3B10
1E10
ENDCHAR
STARTCHAR R
ENCODING 82
SWIDTH 503 0
DWIDTH 14 0
BBX 13 22 1 0
BITMAP
C000
CFE0
F830
E010
C030
C060
C180
C300
CC00
F800
E000
C000
F000
BC00
8F00
83C0
80F0
8038
8000
8000
8000
8000
ENDCHAR
STARTCHAR S
ENCODING 83
SWIDTH 541 0
DWIDTH 15 0
BBX 15 19 0 1
BITMAP
01F0
0660
0C00
1800
3000
6000
4000
C000
C000
C000
6000
3C00
07F8
000C
0006
001C
0070
03C0
1F00
ENDCHAR
STARTCHAR T
ENCODING 84
SWIDTH 595 0
DWIDTH 17 0
BBX 20 20 0 0
BITMAP
004070
00FFC0
7FE000
F04000
004000
006000
006000
006000
006000
006000
002000
002000
002000
003000
003000
003000
003000
003000
003000
001000
ENDCHAR
STARTCHAR U
ENCODING 85
SWIDTH 450 0
DWIDTH 13 0
BBX 11 20 1 -3
BITMAP
8060
C060
C060
C060
C0E0
C0E0
C0C0
C0C0
C0C0
C1C0
C1C0
C140
C360
C260
4660
7C20
1820
0020
0020
0020
ENDCHAR
STARTCHAR V
ENCODING 86
SWIDTH 524 0
DWIDTH 15 0
BBX 14 20 0 0
BITMAP
000C
000C
000C
0008
C008
6018
6018
3010
3010
1830
1830
0C30
0C20
0460
0660
0260
0340
03C0
01C0
00C0
ENDCHAR
STARTCHAR W
ENCODING 87
SWIDTH 878 0
DWIDTH 25 0
BBX 24 21 0 0
BITMAP
000002
000003
000002
000406
C00C06
600C04
601E04
20160C
30160C
303208
102308
182308
186118
186198
0C4090
0C40D0
0CC070
0E8070
078020
078000
030000
ENDCHAR
STARTCHAR X
ENCODING 88
SWIDTH 461 0
DWIDTH 13 0
BBX 11 20 1 0
BITMAP
0020
0020
4040
40C0
6080
2180
3100
1300
1A00
0E00
0C00
0C00
1E00
1200
3300
6100
6180
C0C0
80C0
0040
ENDCHAR
STARTCHAR Y
ENCODING 89
SWIDTH 483 0
DWIDTH 14 0
BBX 13 22 0 0
BITMAP
0008
0008
0018
0010
8010
4030
6020
3020
3860
1860
0C40
06C0
0380
0180
0180
0100
0100
0300
0200
0600
0600
0400
ENDCHAR
STARTCHAR Z
ENCODING 90
SWIDTH 670 0
DWIDTH 19 0
BBX 17 19 1 0
BITMAP
FFFE00
000C00
001C00
001800
003000
006000
00C000
01C000
018000
030000
060000
0C0000
1C0000
180000
300000
600000
C00000
FFFF80
FFFC00
ENDCHAR
STARTCHAR bracketleft
ENCODING 91
SWIDTH 470 0
DWIDTH 13 0
BBX 11 34 1 -3
BITMAP
FFC0
C000
8000
8000
8000
8000
8000
8000
C000
C000
C000
4000
4000
4000
4000
4000
4000
4000
6000
6000
6000
6000
2000
2000
2000
2000
2000
2000
2000
2000
2020
23E0
3F00
3000
ENDCHAR
STARTCHAR backslash
ENCODING 92
SWIDTH 554 0
DWIDTH 16 0
BBX 15 28 0 0
BITMAP
C000
6000
6000
3000
1000
1800
0800
0C00
0400
0600
0200
0300
0300
0180
0180
0080
00C0
0040
0060
0020
0030
0010
0018
0018
000C
000C
0006
0006
ENDCHAR
STARTCHAR bracketright
ENCODING 93
SWIDTH 512 0
DWIDTH 14 0
BBX 14 36 0 -3
BITMAP
1FF8
FFF8
0030
0030
0030
0030
0030
0010
0010
0010
0010
0010
0010
0010
0010
0010
0010
0010
0018
0018
0018
0018
0018
0018
0018
0018
0018
0008
0008
0008
0008
0008
0008
001C
01F8
0380
ENDCHAR
STARTCHAR asciicircum
ENCODING 94
SWIDTH 390 0
DWIDTH 11 0
BBX 10 7 1 19
BITMAP
1800
1C00
3600
2200
4100
C1C0
8080
ENDCHAR
STARTCHAR underscore
ENCODING 95
SWIDTH 612 0
DWIDTH 17 0
BBX 16 5 0 0
BITMAP
0003
007F
07F8
3F00
F000
ENDCHAR
STARTCHAR grave
ENCODING 96
SWIDTH 155 0
DWIDTH 4 0
BBX 3 4 0 17
BITMAP
40
C0
60
20
ENDCHAR
STARTCHAR a
ENCODING 97
SWIDTH 366 0
DWIDTH 10 0
BBX 10 15 0 0
BITMAP
0700
0F80
1D80
1980
3180
3380
6380
6780
4680
CC80
CC80
9880
F0C0
E0C0
4080
ENDCHAR
STARTCHAR b
ENCODING 98
SWIDTH 442 0
DWIDTH 12 0
BBX 10 23 1 0
BITMAP
C000
C000
C000
C000
C000
C000
C000
C000
C000
C7C0
CFC0
D840
F040
E040
C040
C0C0
80C0
8180
8300
8E00
9C00
F000
E000
ENDCHAR
STARTCHAR c
ENCODING 99
SWIDTH 390 0
DWIDTH 11 0
BBX 9 17 1 0
BITMAP
0800
3C00
6C00
6C00
C400
C400
C000
8000
8000
8000
8080
8180
8180
8100
C300
6E00
3C00
ENDCHAR
STARTCHAR d
ENCODING 100
SWIDTH 316 0
DWIDTH 9 0
BBX 8 27 0 -2
BITMAP
01
03
03
03
03
03
03
01
01
01
01
1F
33
63
63
43
C3
C3
C3
87
85
85
C9
F9
61
01
01
ENDCHAR
STARTCHAR e
ENCODING 101
SWIDTH 461 0
DWIDTH 13 0
BBX 12 15 0 0
BITMAP
0700
0F80
18C0
10C0
3380
3E00
7800
7000
E030
6030
2060
20C0
2180
3700
1C00
ENDCHAR
STARTCHAR f
ENCODING 102
SWIDTH 345 0
DWIDTH 10 0
BBX 8 25 1 0
BITMAP
1C
1C
36
32
30
30
30
20
20
20
20
27
3F
78
E0
A0
20
20
30
30
30
30
30
30
30
ENDCHAR
STARTCHAR g
ENCODING 103
SWIDTH 437 0
DWIDTH 12 0
BBX 11 27 0 -12
BITMAP
03C0
0EC0
08C0
19E0
3160
2160
6360
6260
4660
4460
CC60
7860
7060
2060
0060
0060
0060
0060
0060
0060
0040
00C0
00C0
0180
0300
0F00
3C00
ENDCHAR
STARTCHAR h
ENCODING 104
SWIDTH 466 0
DWIDTH 13 0
BBX 11 21 1 0
BITMAP
8000
8000
8000
8000
8000
8000
8000
81C0
C7E0
CE20
CC20
DC20
D820
D820
F020
F020
E020
E020
C020
C020
8020
ENDCHAR
STARTCHAR i
ENCODING 105
SWIDTH 132 0
DWIDTH 4 0
BBX 2 21 1 0
BITMAP
80
80
00
00
00
C0
C0
C0
C0
C0
C0
C0
C0
C0
80
80
80
80
80
C0
C0
ENDCHAR
STARTCHAR j
ENCODING 106
SWIDTH 112 0
DWIDTH 3 0
BBX 8 31 -5 -9
BITMAP
02
00
00
00
00
00
00
00
02
02
02
02
02
02
02
02
02
03
03
03
03
03
03
03
01
03
03
83
C2
66
1C
ENDCHAR
STARTCHAR k
ENCODING 107
SWIDTH 428 0
DWIDTH 12 0
BBX 10 22 1 -1
BITMAP
C000
C000
C000
C000
C040
C0C0
C0C0
C180
C380
C300
C600
CE00
CC00
D800
F000
E000
E000
F800
8F00
83C0
8040
8000
ENDCHAR
STARTCHAR l
ENCODING 108
SWIDTH 137 0
DWIDTH 4 0
BBX 2 23 1 1
BITMAP
80
80
80
80
80
80
80
C0
C0
C0
C0
40
40
40
40
40
40
40
40
40
C0
C0
C0
ENDCHAR
STARTCHAR m
ENCODING 109
SWIDTH 579 0
DWIDTH 16 0
BBX 15 17 1 0
BITMAP
8000
8000
C000
C030
DC78
DE78
DE58
D6C8
F288
F288
E388
6388
6108
610C
600C
4006
4000
ENDCHAR
STARTCHAR n
ENCODING 110
SWIDTH 483 0
DWIDTH 14 0
BBX 12 16 1 0
BITMAP
83C0
87C0
8660
CC60
CC20
C820
D820
D820
D020
D020
F020
6020
6020
6020
6030
6000
ENDCHAR
STARTCHAR o
ENCODING 111
SWIDTH 266 0
DWIDTH 7 0
BBX 7 15 0 0
BITMAP
38
3C
64
46
42
42
42
46
C6
46
46
44
4C
78
70
ENDCHAR
STARTCHAR p
ENCODING 112
SWIDTH 482 0
DWIDTH 14 0
BBX 12 23 1 -8
BITMAP
8000
83E0
8E30
9830
E030
C060
C040
80C0
8380
8600
DC00
F800
E000
C000
C000
8000
8000
8000
8000
8000
8000
8000
8000
ENDCHAR
STARTCHAR q
ENCODING 113
SWIDTH 408 0
DWIDTH 11 0
BBX 11 21 1 -8
BITMAP
0700
1D00
3100
2180
6180
4380
C380
8280
8680
8480
DC80
F0C0
00C0
00C0
0040
0040
0040
0040
0060
0060
0060
ENDCHAR
STARTCHAR r
ENCODING 114
SWIDTH 396 0
DWIDTH 11 0
BBX 9 14 1 0
BITMAP
8780
8E00
9800
D800
D000
D000
7000
7000
7000
7000
7000
7000
3000
2000
ENDCHAR
STARTCHAR s
ENCODING 115
SWIDTH 366 0
DWIDTH 10 0
BBX 9 15 1 -1
BITMAP
0E00
3200
6000
C000
C000
8000
8700
FF80
F180
0180
0300
0600
0C00
3800
2000
ENDCHAR
STARTCHAR t
ENCODING 116
SWIDTH 268 0
DWIDTH 8 0
BBX 9 22 -1 -1
BITMAP
1000
1000
1000
1000
1000
1080
1F80
3E00
F000
F000
1000
1000
1000
1000
1000
1000
1000
1000
1000
1000
1800
0800
ENDCHAR
STARTCHAR u
ENCODING 117
SWIDTH 387 0
DWIDTH 11 0
BBX 9 15 1 -1
BITMAP
8000
8100
8300
8300
8300
C300
C300
C300
C300
C700
C700
4D00
7980
7180
0080
ENDCHAR
STARTCHAR v
ENCODING 118
SWIDTH 354 0
DWIDTH 10 0
BBX 9 15 0 0
BITMAP
0180
0180
0180
C180
6180
6180
3180
3180
1980
1980
0D80
0780
0780
0380
0180
ENDCHAR
STARTCHAR w
ENCODING 119
SWIDTH 566 0
DWIDTH 16 0
BBX 14 14 1 0
BITMAP
8608
C70C
C50C
458C
648C
64CC
246C
3C2C
1C3C
1C1C
1C1C
0C0C
0C00
0400
ENDCHAR
STARTCHAR x
ENCODING 120
SWIDTH 454 0
DWIDTH 13 0
BBX 12 19 0 -2
BITMAP
0300
0300
0300
0300
C300
6300
3200
1A00
0E00
0600
0700
0780
0CC0
0C60
0C30
0810
1800
1800
1800
ENDCHAR
STARTCHAR y
ENCODING 121
SWIDTH 363 0
DWIDTH 10 0
BBX 9 25 1 -10
BITMAP
0100
0180
8180
C180
C180
6180
6180
3100
1900
1900
0D00
0700
0700
0300
0300
0100
0100
0100
0300
0300
0300
0300
0300
0300
0200
ENDCHAR
STARTCHAR z
ENCODING 122
SWIDTH 618 0
DWIDTH 17 0
BBX 17 14 1 0
BITMAP
01C000
07C000
3CC000
E18000
018000
030000
030000
060000
060000
040000
0C0300
0C7F80
0FF800
1F0000
ENDCHAR
STARTCHAR braceleft
ENCODING 123
SWIDTH 348 0
DWIDTH 10 0
BBX 10 26 0 -2
BITMAP
0700
1CC0
1880
3000
3000
3000
1000
1800
0800
0C00
7800
6000
3000
1000
1800
7000
E000
C000
C000
C000
C000
4000
6000
7000
3C00
1F00
ENDCHAR
STARTCHAR bar
ENCODING 124
SWIDTH 137 0
DWIDTH 4 0
BBX 2 23 1 1
BITMAP
80
80
80
80
80
80
80
C0
C0
C0
C0
40
40
40
40
40
40
40
40
40
C0
C0
C0
ENDCHAR
STARTCHAR braceright
ENCODING 125
SWIDTH 348 0
DWIDTH 10 0
BBX 9 26 0 -3
BITMAP
7800
8C00
0600
0600
0200
0600
0400
0C00
0800
0C00
0700
0300
0600
0C00
0F00
0700
0180
0180
0180
0180
0180
0100
0300
0600
1E00
3800
ENDCHAR
STARTCHAR asciitilde
ENCODING 126
SWIDTH 458 0
DWIDTH 13 0
BBX 11 5 1 15
BITMAP
7840
CCE0
CCC0
8780
0100
ENDCHAR
STARTCHAR nonbreakingspace
ENCODING 160
SWIDTH 450 0
DWIDTH 13 0
BBX 1 1 0 0
BITMAP
00
ENDCHAR
STARTCHAR exclamdown
ENCODING 161
SWIDTH 137 0
DWIDTH 4 0
BBX 2 18 1 -4
BITMAP
40
00
00
00
00
00
00
80
80
80
80
80
80
80
80
80
80
80
ENDCHAR
STARTCHAR cent
ENCODING 162
SWIDTH 394 0
DWIDTH 11 0
BBX 9 22 1 -2
BITMAP
1000
1800
1800
0800
3C00
6E00
6B00
C900
C800
C800
8800
8800
8800
8880
8980
8980
8980
CB00
6E00
3C00
0800
0C00
ENDCHAR
STARTCHAR sterling
ENCODING 163
SWIDTH 539 0
DWIDTH 15 0
BBX 14 19 0 0
BITMAP
0030
00F8
018C
0200
0600
0400
0C00
0FC0
FE00
1800
1800
1800
1000
1000
1000
1000
11F8
171C
1C00
ENDCHAR
STARTCHAR currency
ENCODING 164
SWIDTH 500 0
DWIDTH 14 0
BBX 11 16 1 2
BITMAP
0060
3060
36C0
3F80
1980
1080
1080
3080
1080
1080
1180
3B80
6F80
6480
C080
8000
ENDCHAR
STARTCHAR yen
ENCODING 165
SWIDTH 478 0
DWIDTH 13 0
BBX 10 23 2 0
BITMAP
0080
41C0
6180
6180
3300
3300
3E00
1E00
1C00
0C00
0C00
0C00
0FC0
FF80
7C00
0C00
7F80
EC00
0C00
0C00
0C00
0C00
0800
ENDCHAR
STARTCHAR brokenbar
ENCODING 166
SWIDTH 137 0
DWIDTH 4 0
BBX 2 23 1 1
BITMAP
80
80
80
80
80
80
80
C0
C0
00
00
40
40
40
40
40
40
40
40
40
40
C0
C0
ENDCHAR
STARTCHAR section
ENCODING 167
SWIDTH 366 0
DWIDTH 10 0
BBX 10 22 0 -1
BITMAP
0700
1F00
3000
6000
4000
4000
C100
4F80
7CC0
30C0
6180
6300
4600
4F80
7FC0
78C0
00C0
0180
0300
0600
1C00
1000
ENDCHAR
STARTCHAR dieresis
ENCODING 168
SWIDTH 306 0
DWIDTH 9 0
BBX 5 2 2 19
BITMAP
C8
98
ENDCHAR
STARTCHAR copyright
ENCODING 169
SWIDTH 485 0
DWIDTH 14 0
BBX 13 19 0 0
BITMAP
03C0
07E0
0C30
1810
1118
3798
2D98
6C18
4818
4818
4838
4878
CCF0
C7B0
C260
40C0
6180
3F00
3C00
ENDCHAR
STARTCHAR ordfeminine
ENCODING 170
SWIDTH 227 0
DWIDTH 6 0
BBX 6 7 0 4
BITMAP
18
28
48
58
B4
A4
C4
ENDCHAR
STARTCHAR guillemotleft
ENCODING 171
SWIDTH 652 0
DWIDTH 18 0
BBX 15 14 1 4
BITMAP
0042
00C6
018C
0318
0E70
1CC0
3180
6300
C300
7180
38E0
0E78
079E
01C6
ENDCHAR
STARTCHAR logicalnot
ENCODING 172
SWIDTH 539 0
DWIDTH 15 0
BBX 12 7 2 4
BITMAP
FFF0
E010
0010
0010
0010
0010
0010
ENDCHAR
STARTCHAR uni00AD
ENCODING 173
SWIDTH 399 0
DWIDTH 11 0
BBX 11 4 0 5
BITMAP
01E0
07C0
3E00
E000
ENDCHAR
STARTCHAR registered
ENCODING 174
SWIDTH 382 0
DWIDTH 11 0
BBX 13 19 0 0
BITMAP
0100
07C0
0EE0
1030
1010
2998
2E78
6848
6988
4F08
4E18
4B18
C8D8
C870
C830
4060
60C0
3F80
3E00
ENDCHAR
STARTCHAR macron
ENCODING 175
SWIDTH 399 0
DWIDTH 11 0
BBX 10 2 0 19
BITMAP
03C0
FFC0
ENDCHAR
STARTCHAR degree
ENCODING 176
SWIDTH 201 0
DWIDTH 6 0
BBX 4 4 1 11
BITMAP
F0
90
90
F0
ENDCHAR
STARTCHAR plusminus
ENCODING 177
SWIDTH 466 0
DWIDTH 13 0
BBX 11 14 0 2
BITMAP
0200
0400
0400
0400
0400
0400
07E0
0E00
FC00
0400
0400
0400
07E0
7E00
ENDCHAR
STARTCHAR twosuperior
ENCODING 178
SWIDTH 318 0
DWIDTH 9 0
BBX 8 9 0 4
BITMAP
38
48
88
08
08
10
11
2E
30
ENDCHAR
STARTCHAR threesuperior
ENCODING 179
SWIDTH 280 0
DWIDTH 8 0
BBX 7 11 0 5
BITMAP
38
C8
08
10
3C
62
02
02
04
08
10
ENDCHAR
STARTCHAR acute
ENCODING 180
SWIDTH 155 0
DWIDTH 4 0
BBX 3 4 1 16
BITMAP
60
C0
C0
80
ENDCHAR
STARTCHAR mu
ENCODING 181
SWIDTH 387 0
DWIDTH 11 0
BBX 9 19 1 -4
BITMAP
8100
8100
8300
8300
8300
C300
C300
C300
C300
C700
C700
CD00
F980
A000
8000
8000
8000
8000
8000
ENDCHAR
STARTCHAR paragraph
ENCODING 182
SWIDTH 447 0
DWIDTH 13 0
BBX 10 18 1 0
BITMAP
1FC0
7FC0
FF40
FE40
FE40
FA40
F240
0340
0340
0340
0340
0340
0340
0340
0340
0340
0340
0140
ENDCHAR
STARTCHAR periodcentered
ENCODING 183
SWIDTH 128 0
DWIDTH 4 0
BBX 2 2 1 6
BITMAP
C0
80
ENDCHAR
STARTCHAR cedilla
ENCODING 184
SWIDTH 322 0
DWIDTH 9 0
BBX 6 9 2 -8
BITMAP
80
80
80
E0
F8
1C
0C
1C
F8
ENDCHAR
STARTCHAR onesuperior
ENCODING 185
SWIDTH 112 0
DWIDTH 3 0
BBX 1 10 1 4
BITMAP
80
80
80
80
80
80
80
80
80
80
ENDCHAR
STARTCHAR ordmasculine
ENCODING 186
SWIDTH 212 0
DWIDTH 6 0
BBX 6 8 0 4
BITMAP
30
48
48
4C
CC
C8
58
70
ENDCHAR
STARTCHAR guillemotright
ENCODING 187
SWIDTH 625 0
DWIDTH 18 0
BBX 15 16 1 3
BITMAP
0200
E700
71C0
1C70
071C
01CE
00C2
00C6
018C
0318
0630
0CE0
39C0
7380
E600
8400
ENDCHAR
STARTCHAR onequarter
ENCODING 188
SWIDTH 678 0
DWIDTH 19 0
BBX 17 22 1 -2
BITMAP
030000
020000
020000
060000
040000
840000
8C0800
8C1800
881800
883800
986800
90C800
908800
B10980
A37E00
AF8800
600800
400800
400800
400800
800800
800000
ENDCHAR
STARTCHAR onehalf
ENCODING 189
SWIDTH 693 0
DWIDTH 19 0
BBX 16 22 1 -2
BITMAP
0080
0180
0100
0100
8300
8200
8200
8200
8660
85B0
C710
4E10
4810
4820
5820
5020
1040
3047
20F8
2080
2000
6000
ENDCHAR
STARTCHAR threequarters
ENCODING 190
SWIDTH 868 0
DWIDTH 24 0
BBX 19 22 1 -2
BITMAP
000200
000600
1E0400
620400
840500
0C0F00
180B00
1F0F00
709D00
00DD00
009900
00B100
0131E0
062F00
0C7100
184100
004100
004100
00C100
008100
008100
018000
ENDCHAR
STARTCHAR questiondown
ENCODING 191
SWIDTH 541 0
DWIDTH 15 0
BBX 12 23 2 -1
BITMAP
0200
0100
0000
0000
0000
0000
0000
0000
0000
1F00
1180
0180
0180
0300
0600
0C00
1800
3000
6000
4000
C030
C0F0
7F80
ENDCHAR
STARTCHAR Agrave
ENCODING 192
SWIDTH 390 0
DWIDTH 11 0
BBX 13 26 1 -1
BITMAP
2000
3000
1800
0800
0000
3000
3000
3800
3800
2800
2C00
6400
6400
6600
6200
6300
63F8
6380
4700
7D80
6180
C080
C080
C0C0
C0C0
0040
ENDCHAR
STARTCHAR Aacute
ENCODING 193
SWIDTH 390 0
DWIDTH 11 0
BBX 12 26 1 0
BITMAP
1000
3000
6000
4000
0000
2000
3000
3000
7800
6800
6800
6C00
6400
4400
4600
4200
43F0
C380
C700
FB00
E100
C180
8080
8080
8080
00C0
ENDCHAR
STARTCHAR Acircumflex
ENCODING 194
SWIDTH 390 0
DWIDTH 11 0
BBX 14 29 -1 0
BITMAP
0800
1C00
3600
2300
6180
40C0
C040
0000
0800
0C00
0C00
1E00
1A00
1A00
1B00
1900
1100
1180
1080
10FC
30E0
31C0
3EC0
3840
3060
2020
2020
2020
0030
ENDCHAR
STARTCHAR Atilde
ENCODING 195
SWIDTH 390 0
DWIDTH 11 0
BBX 13 28 0 0
BITMAP
7840
D8C0
8DC0
8780
0200
0000
0000
1000
1800
1800
3C00
3400
3400
3600
3200
2200
2300
2100
21F8
61C0
6380
7D80
7080
60C0
4040
4040
4040
0060
ENDCHAR
STARTCHAR Adieresis
ENCODING 196
SWIDTH 390 0
DWIDTH 11 0
BBX 12 25 1 0
BITMAP
6C00
CC00
0000
0000
2000
3000
3000
7800
6800
6800
6C00
6400
4400
4600
4200
43F0
C380
C700
FB00
E100
C180
8080
8080
8080
00C0
ENDCHAR
STARTCHAR Aring
ENCODING 197
SWIDTH 390 0
DWIDTH 11 0
BBX 13 25 0 0
BITMAP
3800
FC00
C600
C600
7C00
1800
1800
3C00
3400
3400
3600
3200
2200
2300
2100
21F8
61C0
6380
7D80
7080
60C0
4040
4040
4040
0060
ENDCHAR
STARTCHAR AE
ENCODING 198
SWIDTH 708 0
DWIDTH 20 0
BBX 19 20 1 1
BITMAP
200080
310700
31BC00
79F000
69C000
698000
6D8000
658000
458300
468C00
42B800
43E000
C38000
C78000
FB80E0
E18180
C18300
808C00
80F800
80E000
ENDCHAR
STARTCHAR Ccedilla
ENCODING 199
SWIDTH 487 0
DWIDTH 14 0
BBX 12 29 1 -9
BITMAP
0F00
1980
1080
3000
2000
6000
6000
4000
4000
C000
C000
8000
8030
8030
8060
8040
80C0
C100
6600
7C00
1800
1800
1800
1E00
0780
0180
01C0
0F80
1E00
ENDCHAR
STARTCHAR Egrave
ENCODING 200
SWIDTH 474 0
DWIDTH 13 0
BBX 12 26 1 0
BITMAP
1000
1000
1800
0C00
0000
0000
C3C0
CE00
FC00
F000
4000
4000
4000
4080
4300
4E00
7800
6000
6000
6030
60E0
6180
6300
6C00
7800
6000
ENDCHAR
STARTCHAR Eacute
ENCODING 201
SWIDTH 474 0
DWIDTH 13 0
BBX 12 24 1 0
BITMAP
0200
0600
0C00
0800
C3C0
CE00
FC00
F000
4000
4000
4000
4080
4300
4E00
7800
6000
6000
6030
60E0
6180
6300
6C00
7800
6000
ENDCHAR
STARTCHAR Ecircumflex
ENCODING 202
SWIDTH 474 0
DWIDTH 13 0
BBX 12 29 1 0
BITMAP
0C00
0E00
1B00
1180
30C0
2060
6020
0000
0000
C3C0
CE00
FC00
F000
4000
4000
4000
4080
4300
4E00
7800
6000
6000
6030
60E0
6180
6300
6C00
7800
6000
ENDCHAR
STARTCHAR Edieresis
ENCODING 203
SWIDTH 474 0
DWIDTH 13 0
BBX 12 25 1 0
BITMAP
1300
3300
0000
0000
0000
C3C0
CE00
FC00
F000
4000
4000
4000
4080
4300
4E00
7800
6000
6000
6030
60E0
6180
6300
6C00
7800
6000
ENDCHAR
STARTCHAR Igrave
ENCODING 204
SWIDTH 153 0
DWIDTH 4 0
BBX 4 27 0 0
BITMAP
40
C0
60
20
00
00
60
20
20
20
20
20
20
20
20
20
20
20
20
20
20
20
20
20
20
30
20
ENDCHAR
STARTCHAR Iacute
ENCODING 205
SWIDTH 153 0
DWIDTH 4 0
BBX 3 26 1 0
BITMAP
20
60
C0
80
00
C0
40
40
40
40
40
40
40
40
40
40
40
40
40
40
40
40
40
40
60
40
ENDCHAR
STARTCHAR Icircumflex
ENCODING 206
SWIDTH 153 0
DWIDTH 4 0
BBX 10 29 -2 0
BITMAP
1800
1C00
3600
2200
6100
40C0
8080
0000
1800
0800
0800
0800
0800
0800
0800
0800
0800
0800
0800
0800
0800
0800
0800
0800
0800
0800
0800
0C00
0800
ENDCHAR
STARTCHAR Idieresis
ENCODING 207
SWIDTH 153 0
DWIDTH 4 0
BBX 5 25 0 0
BITMAP
C8
98
00
00
60
20
20
20
20
20
20
20
20
20
20
20
20
20
20
20
20
20
20
30
20
ENDCHAR
STARTCHAR Eth
ENCODING 208
SWIDTH 554 0
DWIDTH 16 0
BBX 15 21 0 0
BITMAP
1000
1000
3FE0
7038
5004
1006
1002
1006
1004
1004
100C
1808
1818
1B30
7F60
DCC0
09C0
0B80
0B00
0600
0C00
ENDCHAR
STARTCHAR Ntilde
ENCODING 209
SWIDTH 541 0
DWIDTH 15 0
BBX 13 26 1 0
BITMAP
3820
6C60
C4C0
8780
0100
0030
0030
0030
8030
C010
E010
F010
F810
D810
CC10
4610
4310
4110
4190
40D0
6050
6030
6038
6018
6018
2000
ENDCHAR
STARTCHAR Ograve
ENCODING 210
SWIDTH 382 0
DWIDTH 11 0
BBX 10 25 0 0
BITMAP
0200
0300
0300
0180
0000
0000
0700
0F80
18C0
10C0
3040
2040
6040
6040
6040
4040
40C0
40C0
C0C0
C080
C180
4100
6300
3E00
3C00
ENDCHAR
STARTCHAR Oacute
ENCODING 211
SWIDTH 382 0
DWIDTH 11 0
BBX 10 24 0 0
BITMAP
0600
0C00
1800
0800
0000
0700
0F80
18C0
10C0
3040
2040
6040
6040
6040
4040
40C0
40C0
C0C0
C080
C180
4100
6300
3E00
3C00
ENDCHAR
STARTCHAR Ocircumflex
ENCODING 212
SWIDTH 382 0
DWIDTH 11 0
BBX 10 26 0 0
BITMAP
0C00
1C00
1200
3100
2180
60C0
4040
0700
0F80
18C0
10C0
3040
2040
6040
6040
6040
4040
40C0
40C0
C0C0
C080
C180
4100
6300
3E00
3C00
ENDCHAR
STARTCHAR Otilde
ENCODING 213
SWIDTH 382 0
DWIDTH 11 0
BBX 12 25 0 0
BITMAP
1E10
3630
6360
23C0
0080
0000
0700
0F80
18C0
10C0
3040
2040
6040
6040
6040
4040
40C0
40C0
C0C0
C080
C180
4100
6300
3E00
3C00
ENDCHAR
STARTCHAR Odieresis
ENCODING 214
SWIDTH 382 0
DWIDTH 11 0
BBX 10 23 0 0
BITMAP
0CC0
0C80
0000
0000
0700
0F80
18C0
10C0
3040
2040
6040
6040
6040
4040
40C0
40C0
C0C0
C080
C180
4100
6300
3E00
3C00
ENDCHAR
STARTCHAR multiply
ENCODING 215
SWIDTH 454 0
DWIDTH 13 0
BBX 8 9 2 4
BITMAP
C1
43
26
3C
18
38
6C
C6
86
ENDCHAR
STARTCHAR Oslash
ENCODING 216
SWIDTH 382 0
DWIDTH 11 0
BBX 10 22 0 -2
BITMAP
0080
0780
0F80
19C0
11C0
3340
2240
6240
6640
6440
4440
4CC0
48C0
C8C0
C880
D980
5100
7300
3E00
3C00
2000
2000
ENDCHAR
STARTCHAR Ugrave
ENCODING 217
SWIDTH 450 0
DWIDTH 13 0
BBX 11 26 1 -3
BITMAP
1000
1800
0C00
0400
0000
0000
8060
C060
C060
C060
C0E0
C0E0
C0C0
C0C0
C0C0
C1C0
C1C0
C140
C360
C260
4660
7C20
1820
0020
0020
0020
ENDCHAR
STARTCHAR Uacute
ENCODING 218
SWIDTH 450 0
DWIDTH 13 0
BBX 11 23 1 -3
BITMAP
0300
0600
0C00
8860
C060
C060
C060
C0E0
C0E0
C0C0
C0C0
C0C0
C1C0
C1C0
C140
C360
C260
4660
7C20
1820
0020
0020
0020
ENDCHAR
STARTCHAR Ucircumflex
ENCODING 219
SWIDTH 450 0
DWIDTH 13 0
BBX 11 29 1 -3
BITMAP
0800
1C00
1200
3300
2180
40C0
C040
0000
0000
8060
C060
C060
C060
C0E0
C0E0
C0C0
C0C0
C0C0
C1C0
C1C0
C140
C360
C260
4660
7C20
1820
0020
0020
0020
ENDCHAR
STARTCHAR Udieresis
ENCODING 220
SWIDTH 450 0
DWIDTH 13 0
BBX 11 24 1 -3
BITMAP
1B00
3300
0000
0000
8060
C060
C060
C060
C0E0
C0E0
C0C0
C0C0
C0C0
C1C0
C1C0
C140
C360
C260
4660
7C20
1820
0020
0020
0020
ENDCHAR
STARTCHAR Yacute
ENCODING 221
SWIDTH 483 0
DWIDTH 14 0
BBX 13 26 0 0
BITMAP
0080
0180
0300
0200
0008
0008
0018
0010
8010
4030
6020
3020
3860
1860
0C40
06C0
0380
0180
0180
0100
0100
0300
0200
0600
0600
0400
ENDCHAR
STARTCHAR Thorn
ENCODING 222
SWIDTH 398 0
DWIDTH 11 0
BBX 10 22 1 1
BITMAP
C000
C000
C000
C000
C000
CF80
DF80
F080
E0C0
C0C0
C080
C080
C180
C300
8600
9800
F000
C000
8000
8000
C000
C000
ENDCHAR
STARTCHAR germandbls
ENCODING 223
SWIDTH 537 0
DWIDTH 15 0
BBX 13 20 1 0
BITMAP
07C0
9CC0
F0C0
C080
C100
C300
4670
4FD8
5C08
7808
7010
6030
6060
20C0
2180
2300
2600
3400
3000
2000
ENDCHAR
STARTCHAR agrave
ENCODING 224
SWIDTH 366 0
DWIDTH 10 0
BBX 10 21 0 0
BITMAP
1000
1800
0C00
0C00
0000
0000
0700
0F80
1D80
1980
3180
3380
6380
6780
4680
CC80
CC80
9880
F0C0
E0C0
4080
ENDCHAR
STARTCHAR aacute
ENCODING 225
SWIDTH 366 0
DWIDTH 10 0
BBX 10 20 0 0
BITMAP
0200
0600
0C00
0800
0000
0700
0F80
1D80
1980
3180
3380
6380
6780
4680
CC80
CC80
9880
F0C0
E0C0
4080
ENDCHAR
STARTCHAR acircumflex
ENCODING 226
SWIDTH 366 0
DWIDTH 10 0
BBX 10 26 0 0
BITMAP
0800
1C00
1200
3300
2180
40C0
C040
0000
0000
0000
0000
0700
0F80
1D80
1980
3180
3380
6380
6780
4680
CC80
CC80
9880
F0C0
E0C0
4080
ENDCHAR
STARTCHAR atilde
ENCODING 227
SWIDTH 366 0
DWIDTH 10 0
BBX 11 21 0 0
BITMAP
3C20
6460
46E0
43C0
0100
0000
0700
0F80
1D80
1980
3180
3380
6380
6780
4680
CC80
CC80
9880
F0C0
E0C0
4080
ENDCHAR
STARTCHAR adieresis
ENCODING 228
SWIDTH 366 0
DWIDTH 10 0
BBX 10 21 0 0
BITMAP
1300
3300
0000
0000
0000
0000
0700
0F80
1D80
1980
3180
3380
6380
6780
4680
CC80
CC80
9880
F0C0
E0C0
4080
ENDCHAR
STARTCHAR aring
ENCODING 229
SWIDTH 366 0
DWIDTH 10 0
BBX 10 19 0 0
BITMAP
0F00
1980
3180
1980
1F00
0F80
1D80
1980
3180
3380
6380
6780
4680
CC80
CC80
9880
F0C0
E0C0
4080
ENDCHAR
STARTCHAR ae
ENCODING 230
SWIDTH 705 0
DWIDTH 20 0
BBX 19 16 0 0
BITMAP
000E00
071F00
0FB180
1DA180
19E300
31EC00
33F800
63E000
67C020
46C060
CCC0C0
CCC180
98C300
F0EE00
E0FC00
408000
ENDCHAR
STARTCHAR ccedilla
ENCODING 231
SWIDTH 390 0
DWIDTH 11 0
BBX 9 26 1 -9
BITMAP
0800
3C00
6C00
6C00
C400
C400
C000
8000
8000
8000
8080
8180
8180
8100
C300
6E00
3C00
2000
2000
3800
3E00
0700
0300
0700
3F00
2000
ENDCHAR
STARTCHAR egrave
ENCODING 232
SWIDTH 461 0
DWIDTH 13 0
BBX 12 21 0 0
BITMAP
0400
0C00
0600
0200
0000
0000
0700
0F80
18C0
10C0
3380
3E00
7800
7000
E030
6030
2060
20C0
2180
3700
1C00
ENDCHAR
STARTCHAR eacute
ENCODING 233
SWIDTH 461 0
DWIDTH 13 0
BBX 12 20 0 0
BITMAP
0180
0300
0600
0200
0000
0700
0F80
18C0
10C0
3380
3E00
7800
7000
E030
6030
2060
20C0
2180
3700
1C00
ENDCHAR
STARTCHAR ecircumflex
ENCODING 234
SWIDTH 461 0
DWIDTH 13 0
BBX 12 26 0 0
BITMAP
0600
0F00
0900
1880
10C0
3060
2020
0000
0000
0000
0000
0700
0F80
18C0
10C0
3380
3E00
7800
7000
E030
6030
2060
20C0
2180
3700
1C00
ENDCHAR
STARTCHAR edieresis
ENCODING 235
SWIDTH 461 0
DWIDTH 13 0
BBX 12 21 0 0
BITMAP
0C80
0980
0000
0000
0000
0000
0700
0F80
18C0
10C0
3380
3E00
7800
7000
E030
6030
2060
20C0
2180
3700
1C00
ENDCHAR
STARTCHAR igrave
ENCODING 236
SWIDTH 132 0
DWIDTH 4 0
BBX 3 23 0 0
BITMAP
80
C0
C0
60
00
00
00
60
60
60
60
60
60
60
60
60
40
40
40
40
40
60
60
ENDCHAR
STARTCHAR iacute
ENCODING 237
SWIDTH 132 0
DWIDTH 4 0
BBX 3 24 1 0
BITMAP
20
60
C0
80
00
00
00
00
C0
C0
C0
C0
C0
C0
C0
C0
C0
80
80
80
80
80
C0
C0
ENDCHAR
STARTCHAR icircumflex
ENCODING 238
SWIDTH 132 0
DWIDTH 4 0
BBX 10 26 -3 0
BITMAP
1800
1C00
3600
2300
6100
40C0
80C0
0000
0000
0000
0C00
0C00
0C00
0C00
0C00
0C00
0C00
0C00
0C00
0800
0800
0800
0800
0800
0C00
0C00
ENDCHAR
STARTCHAR idieresis
ENCODING 239
SWIDTH 132 0
DWIDTH 4 0
BBX 6 21 -1 0
BITMAP
CC
C8
00
00
00
30
30
30
30
30
30
30
30
30
20
20
20
20
20
30
30
ENDCHAR
STARTCHAR eth
ENCODING 240
SWIDTH 481 0
DWIDTH 13 0
BBX 11 17 2 0
BITMAP
1800
0800
0C00
0400
07E0
3F80
4300
0300
2100
7980
DD80
8780
8300
8300
C300
6E00
3800
ENDCHAR
STARTCHAR ntilde
ENCODING 241
SWIDTH 483 0
DWIDTH 14 0
BBX 12 23 1 0
BITMAP
3C20
6670
6660
43C0
0100
0000
0000
83C0
87C0
8660
CC60
CC20
C820
D820
D820
D020
D020
F020
6020
6020
6020
6030
6000
ENDCHAR
STARTCHAR ograve
ENCODING 242
SWIDTH 266 0
DWIDTH 7 0
BBX 7 21 0 0
BITMAP
20
20
30
18
00
00
38
3C
64
46
42
42
42
46
C6
46
46
44
4C
78
70
ENDCHAR
STARTCHAR oacute
ENCODING 243
SWIDTH 266 0
DWIDTH 7 0
BBX 7 20 0 0
BITMAP
0C
1C
18
10
00
38
3C
64
46
42
42
42
46
C6
46
46
44
4C
78
70
ENDCHAR
STARTCHAR ocircumflex
ENCODING 244
SWIDTH 266 0
DWIDTH 7 0
BBX 10 26 -1 0
BITMAP
1800
1C00
3600
2300
6100
40C0
8080
0000
0000
0000
0000
1C00
1E00
3200
2300
2100
2100
2100
2300
6300
2300
2300
2200
2600
3C00
3800
ENDCHAR
STARTCHAR otilde
ENCODING 245
SWIDTH 266 0
DWIDTH 7 0
BBX 11 21 -1 0
BITMAP
3820
6C60
C4C0
8780
0100
0000
1C00
1E00
3200
2300
2100
2100
2100
2300
6300
2300
2300
2200
2600
3C00
3800
ENDCHAR
STARTCHAR odieresis
ENCODING 246
SWIDTH 266 0
DWIDTH 7 0
BBX 7 21 0 0
BITMAP
66
64
00
00
00
00
38
3C
64
46
42
42
42
46
C6
46
46
44
4C
78
70
ENDCHAR
STARTCHAR divide
ENCODING 247
SWIDTH 345 0
DWIDTH 10 0
BBX 8 9 1 3
BITMAP
10
10
00
7F
F8
00
00
18
10
ENDCHAR
STARTCHAR oslash
ENCODING 248
SWIDTH 266 0
DWIDTH 7 0
BBX 8 18 0 -2
BITMAP
03
3A
3E
64
46
4A
4A
5A
56
D6
76
66
64
6C
78
70
80
80
ENDCHAR
STARTCHAR ugrave
ENCODING 249
SWIDTH 387 0
DWIDTH 11 0
BBX 9 22 1 -1
BITMAP
1000
3000
1800
0800
0000
0000
0000
8000
8100
8300
8300
8300
C300
C300
C300
C300
C700
C700
4D00
7980
7180
0080
ENDCHAR
STARTCHAR uacute
ENCODING 250
SWIDTH 387 0
DWIDTH 11 0
BBX 9 21 1 -1
BITMAP
0600
0C00
1800
0800
0000
0000
8000
8100
8300
8300
8300
C300
C300
C300
C300
C700
C700
4D00
7980
7180
0080
ENDCHAR
STARTCHAR ucircumflex
ENCODING 251
SWIDTH 387 0
DWIDTH 11 0
BBX 9 27 1 -1
BITMAP
1800
3C00
2400
6200
4300
C180
8080
0000
0000
0000
0000
0000
8000
8100
8300
8300
8300
C300
C300
C300
C300
C700
C700
4D00
7980
7180
0080
ENDCHAR
STARTCHAR udieresis
ENCODING 252
SWIDTH 387 0
DWIDTH 11 0
BBX 9 22 1 -1
BITMAP
3200
2600
0000
0000
0000
0000
0000
8000
8100
8300
8300
8300
C300
C300
C300
C300
C700
C700
4D00
7980
7180
0080
ENDCHAR
STARTCHAR yacute
ENCODING 253
SWIDTH 363 0
DWIDTH 10 0
BBX 9 30 1 -10
BITMAP
0400
0C00
1800
1000
0000
0100
0180
8180
C180
C180
6180
6180
3100
1900
1900
0D00
0700
0700
0300
0300
0100
0100
0100
0300
0300
0300
0300
0300
0300
0200
ENDCHAR
STARTCHAR thorn
ENCODING 254
SWIDTH 439 0
DWIDTH 12 0
BBX 11 19 1 -1
BITMAP
8000
87C0
9C60
B060
E040
C0C0
8080
8100
8600
CC00
F800
F000
C000
C000
C000
C000
8000
8000
8000
ENDCHAR
STARTCHAR ydieresis
ENCODING 255
SWIDTH 363 0
DWIDTH 10 0
BBX 9 31 1 -10
BITMAP
2600
6600
0000
0000
0000
0000
0100
0180
8180
C180
C180
6180
6180
3100
1900
1900
0D00
0700
0700
0300
0300
0100
0100
0100
0300
0300
0300
0300
0300
0300
0200
ENDCHAR
STARTCHAR Amacron
ENCODING 256
SWIDTH 390 0
DWIDTH 11 0
BBX 13 25 0 0
BITMAP
03C0
FFC0
0000
0000
1000
1800
1800
3C00
3400
3400
3600
3200
2200
2300
2100
21F8
61C0
6380
7D80
7080
60C0
4040
4040
4040
0060
ENDCHAR
STARTCHAR amacron
ENCODING 257
SWIDTH 366 0
DWIDTH 10 0
BBX 10 21 0 0
BITMAP
03C0
FFC0
0000
0000
0000
0000
0700
0F80
1D80
1980
3180
3380
6380
6780
4680
CC80
CC80
9880
F0C0
E0C0
4080
ENDCHAR
STARTCHAR Abreve
ENCODING 258
SWIDTH 390 0
DWIDTH 11 0
BBX 12 27 1 0
BITMAP
0200
C600
6E00
3C00
0000
0000
2000
3000
3000
7800
6800
6800
6C00
6400
4400
4600
4200
43F0
C380
C700
FB00
E100
C180
8080
8080
8080
00C0
ENDCHAR
STARTCHAR abreve
ENCODING 259
SWIDTH 366 0
DWIDTH 10 0
BBX 10 21 0 0
BITMAP
0080
3180
1B00
0E00
0000
0000
0700
0F80
1D80
1980
3180
3380
6380
6780
4680
CC80
CC80
9880
F0C0
E0C0
4080
ENDCHAR
STARTCHAR Aogonek
ENCODING 260
SWIDTH 390 0
DWIDTH 11 0
BBX 12 28 1 -7
BITMAP
2000
3000
3000
7800
6800
6800
6C00
6400
4400
4600
4200
43F0
C380
C700
FB00
E100
C180
8080
8080
8080
00C0
0180
0300
0300
0200
0210
03F0
01E0
ENDCHAR
STARTCHAR aogonek
ENCODING 261
SWIDTH 366 0
DWIDTH 10 0
BBX 13 21 0 -6
BITMAP
0700
0F80
1D80
1980
3180
3380
6380
6780
4680
CC80
CC80
9880
F0C0
E0C0
4180
0300
0300
0200
0318
03F0
00E0
ENDCHAR
STARTCHAR Cacute
ENCODING 262
SWIDTH 487 0
DWIDTH 14 0
BBX 12 24 1 0
BITMAP
0300
0600
0C00
0400
0F00
1980
1080
3000
2000
6000
6000
4000
4000
C000
C000
8000
8030
8030
8060
8040
80C0
C100
6600
7C00
ENDCHAR
STARTCHAR cacute
ENCODING 263
SWIDTH 390 0
DWIDTH 11 0
BBX 9 22 1 0
BITMAP
0C00
1C00
1800
1000
0000
0800
3C00
6C00
6C00
C400
C400
C000
8000
8000
8000
8080
8180
8180
8100
C300
6E00
3C00
ENDCHAR
STARTCHAR Ccircumflex
ENCODING 264
SWIDTH 487 0
DWIDTH 14 0
BBX 12 28 1 0
BITMAP
0C00
0E00
1B00
1100
2080
20E0
4040
0000
0F00
1980
1080
3000
2000
6000
6000
4000
4000
C000
C000
8000
8030
8030
8060
8040
80C0
C100
6600
7C00
ENDCHAR
STARTCHAR ccircumflex
ENCODING 265
SWIDTH 390 0
DWIDTH 11 0
BBX 9 26 1 0
BITMAP
1800
1C00
2400
6200
4300
C180
8080
0000
0000
0800
3C00
6C00
6C00
C400
C400
C000
8000
8000
8000
8080
8180
8180
8100
C300
6E00
3C00
ENDCHAR
STARTCHAR Cdotaccent
ENCODING 266
SWIDTH 487 0
DWIDTH 14 0
BBX 12 24 1 0
BITMAP
0E00
0400
0000
0000
0F00
1980
1080
3000
2000
6000
6000
4000
4000
C000
C000
8000
8030
8030
8060
8040
80C0
C100
6600
7C00
ENDCHAR
STARTCHAR cdotaccent
ENCODING 267
SWIDTH 390 0
DWIDTH 11 0
BBX 9 19 1 0
BITMAP
3000
1000
0800
3800
6C00
6C00
C400
C400
C000
8000
8000
8000
8080
8180
8180
8100
C300
6E00
3C00
ENDCHAR
STARTCHAR Ccaron
ENCODING 268
SWIDTH 487 0
DWIDTH 14 0
BBX 12 26 1 0
BITMAP
6060
3080
1900
0E00
0400
0000
0F00
1980
1080
3000
2000
6000
6000
4000
4000
C000
C000
8000
8030
8030
8060
8040
80C0
C100
6600
7C00
ENDCHAR
STARTCHAR ccaron
ENCODING 269
SWIDTH 390 0
DWIDTH 11 0
BBX 9 22 1 0
BITMAP
C080
4100
2600
3C00
1800
0800
3C00
6C00
6C00
C400
C400
C000
8000
8000
8000
8080
8180
8180
8100
C300
6E00
3C00
ENDCHAR
STARTCHAR Dcaron
ENCODING 270
SWIDTH 554 0
DWIDTH 16 0
BBX 14 26 1 0
BITMAP
1030
0860
0CC0
0700
0200
2000
2000
7FC0
E070
A008
200C
2004
200C
2008
2008
2018
3010
3030
3060
30C0
1180
1380
1700
1600
0C00
1800
ENDCHAR
STARTCHAR Emacron
ENCODING 274
SWIDTH 474 0
DWIDTH 13 0
BBX 12 24 1 0
BITMAP
03C0
FFC0
0000
0000
C3C0
CE00
FC00
F000
4000
4000
4000
4080
4300
4E00
7800
6000
6000
6030
60E0
6180
6300
6C00
7800
6000
ENDCHAR
STARTCHAR emacron
ENCODING 275
SWIDTH 461 0
DWIDTH 13 0
BBX 12 21 0 0
BITMAP
01E0
7FF0
0000
0000
0000
0000
0700
0F80
18C0
10C0
3380
3E00
7800
7000
E030
6030
2060
20C0
2180
3700
1C00
ENDCHAR
STARTCHAR Ebreve
ENCODING 276
SWIDTH 474 0
DWIDTH 13 0
BBX 12 26 1 0
BITMAP
0080
3180
1B80
0F00
0000
0000
C3C0
CE00
FC00
F000
4000
4000
4000
4080
4300
4E00
7800
6000
6000
6030
60E0
6180
6300
6C00
7800
6000
ENDCHAR
STARTCHAR ebreve
ENCODING 277
SWIDTH 461 0
DWIDTH 13 0
BBX 12 21 0 0
BITMAP
0040
18C0
0DC0
0780
0000
0000
0700
0F80
18C0
10C0
3380
3E00
7800
7000
E030
6030
2060
20C0
2180
3700
1C00
ENDCHAR
STARTCHAR Edotaccent
ENCODING 278
SWIDTH 474 0
DWIDTH 13 0
BBX 12 22 1 0
BITMAP
1C00
0800
C3C0
CE00
FC00
F000
4000
4000
4000
4080
4300
4E00
7800
6000
6000
6030
60E0
6180
6300
6C00
7800
6000
ENDCHAR
STARTCHAR edotaccent
ENCODING 279
SWIDTH 461 0
DWIDTH 13 0
BBX 12 17 0 0
BITMAP
0700
0200
0700
0F80
18C0
10C0
3380
3E00
7800
7000
E030
6030
2060
20C0
2180
3700
1C00
ENDCHAR
STARTCHAR Eogonek
ENCODING 280
SWIDTH 474 0
DWIDTH 13 0
BBX 12 23 1 -3
BITMAP
C3C0
CE00
FC00
F000
4000
4000
4000
4080
4300
4E00
7800
6000
6000
6030
60E0
6180
6300
6E00
7C00
6400
0420
07E0
0380
ENDCHAR
STARTCHAR eogonek
ENCODING 281
SWIDTH 461 0
DWIDTH 13 0
BBX 12 21 0 -6
BITMAP
0700
0F80
18C0
10C0
3380
3E00
7800
7000
E030
6030
2060
20C0
2180
3700
1E00
0C00
0800
0800
08C0
0FC0
0300
ENDCHAR
STARTCHAR Ecaron
ENCODING 282
SWIDTH 474 0
DWIDTH 13 0
BBX 12 25 1 0
BITMAP
40C0
2180
3300
1C00
0800
C3C0
CE00
FC00
F000
4000
4000
4000
4080
4300
4E00
7800
6000
6000
6030
60E0
6180
6300
6C00
7800
6000
ENDCHAR
STARTCHAR ecaron
ENCODING 283
SWIDTH 461 0
DWIDTH 13 0
BBX 12 22 0 0
BITMAP
2020
10C0
0980
0F00
0400
0000
0000
0700
0F80
18C0
10C0
3380
3E00
7800
7000
E030
6030
2060
20C0
2180
3700
1C00
ENDCHAR
STARTCHAR Gcircumflex
ENCODING 284
SWIDTH 591 0
DWIDTH 17 0
BBX 15 29 1 -3
BITMAP
0200
0700
0480
0CC0
0860
1030
3010
0000
01E0
0380
0400
0C00
1800
1000
3000
203E
61FC
4018
C018
8038
8038
8078
80D8
C398
FE18
3818
0018
0018
0008
ENDCHAR
STARTCHAR gcircumflex
ENCODING 285
SWIDTH 437 0
DWIDTH 12 0
BBX 11 38 0 -12
BITMAP
0400
0E00
0900
1180
10C0
2060
6020
0000
0000
0000
0000
03C0
0EC0
08C0
19E0
3160
2160
6360
6260
4660
4460
CC60
7860
7060
2060
0060
0060
0060
0060
0060
0060
0040
00C0
00C0
0180
0300
0F00
3C00
ENDCHAR
STARTCHAR Gbreve
ENCODING 286
SWIDTH 591 0
DWIDTH 17 0
BBX 15 26 1 -3
BITMAP
0030
0420
07E0
03C0
0000
01E0
0380
0400
0C00
1800
1000
3000
203E
61FC
4018
C018
8038
8038
8078
80D8
C398
FE18
3818
0018
0018
0008
ENDCHAR
STARTCHAR gbreve
ENCODING 287
SWIDTH 437 0
DWIDTH 12 0
BBX 11 35 0 -12
BITMAP
0040
18C0
0D80
0700
0000
0000
0000
0000
03C0
0EC0
08C0
19E0
3160
2160
6360
6260
4660
4460
CC60
7860
7060
2060
0060
0060
0060
0060
0060
0060
0040
00C0
00C0
0180
0300
0F00
3C00
ENDCHAR
STARTCHAR Gdotaccent
ENCODING 288
SWIDTH 591 0
DWIDTH 17 0
BBX 16 26 1 -3
BITMAP
0180
0100
0000
0000
0000
00E0
0380
0600
0C00
0800
1800
1000
303F
20FC
600C
401C
401C
C038
C078
C0C8
C388
7F08
1808
000C
000C
000C
ENDCHAR
STARTCHAR gdotaccent
ENCODING 289
SWIDTH 437 0
DWIDTH 12 0
BBX 11 31 0 -12
BITMAP
0380
0100
0000
0000
03C0
0EC0
08C0
19E0
3160
2160
6360
6260
4660
4460
CC60
7860
7060
2060
0060
0060
0060
0060
0060
0060
0040
00C0
00C0
0180
0300
0F00
3C00
ENDCHAR
STARTCHAR Gcommaaccent
ENCODING 290
SWIDTH 591 0
DWIDTH 17 0
BBX 15 27 1 -9
BITMAP
01E0
0380
0400
0C00
1800
1000
3000
203E
61FC
4018
C018
8038
8038
8078
80D8
C398
FE18
3818
0018
0018
0008
0300
0300
0300
0300
0300
0200
ENDCHAR
STARTCHAR Hcircumflex
ENCODING 292
SWIDTH 424 0
DWIDTH 12 0
BBX 10 29 1 0
BITMAP
1800
1C00
2400
6200
4100
C180
8080
0000
0000
0000
8100
8100
8180
8180
8180
8080
8180
8180
C180
C380
CC80
F880
E0C0
C0C0
C0C0
C0C0
C0C0
C040
C040
ENDCHAR
STARTCHAR hcircumflex
ENCODING 293
SWIDTH 466 0
DWIDTH 13 0
BBX 13 26 1 0
BITMAP
0300
0380
06C0
0440
0820
9838
9010
8000
8000
8000
8000
8000
81C0
C7E0
CE20
CC20
DC20
D820
D820
F020
F020
E020
E020
C020
C020
8020
ENDCHAR
STARTCHAR Hbar
ENCODING 294
SWIDTH 424 0
DWIDTH 12 0
BBX 11 19 0 0
BITMAP
4080
4080
40C0
40C0
40C0
5FE0
FCC0
40C0
60C0
61C0
6640
7C40
7060
6060
6060
6060
6060
6020
6020
ENDCHAR
STARTCHAR hbar
ENCODING 295
SWIDTH 466 0
DWIDTH 13 0
BBX 14 21 -2 0
BITMAP
1000
1000
1000
1000
1000
1000
1FC0
FC38
18FC
19C4
1984
1B84
1B04
1B04
1E04
1E04
1C04
1C04
1804
1804
1004
ENDCHAR
STARTCHAR Itilde
ENCODING 296
SWIDTH 153 0
DWIDTH 4 0
BBX 11 28 -3 0
BITMAP
3840
ECE0
C4C0
8780
0100
0000
0000
0C00
0400
0400
0400
0400
0400
0400
0400
0400
0400
0400
0400
0400
0400
0400
0400
0400
0400
0400
0600
0400
ENDCHAR
STARTCHAR itilde
ENCODING 297
SWIDTH 132 0
DWIDTH 4 0
BBX 10 22 -3 0
BITMAP
7840
C8C0
8DC0
8780
0200
0000
0C00
0C00
0C00
0C00
0C00
0C00
0C00
0C00
0C00
0800
0800
0800
0800
0800
0C00
0C00
ENDCHAR
STARTCHAR imacron
ENCODING 299
SWIDTH 132 0
DWIDTH 4 0
BBX 10 21 -3 0
BITMAP
03C0
FFC0
0000
0000
0000
0C00
0C00
0C00
0C00
0C00
0C00
0C00
0C00
0C00
0800
0800
0800
0800
0800
0C00
0C00
ENDCHAR
STARTCHAR Ibreve
ENCODING 300
SWIDTH 153 0
DWIDTH 4 0
BBX 7 27 -1 0
BITMAP
02
C6
6C
38
00
00
30
10
10
10
10
10
10
10
10
10
10
10
10
10
10
10
10
10
10
18
10
ENDCHAR
STARTCHAR ibreve
ENCODING 301
SWIDTH 132 0
DWIDTH 4 0
BBX 7 22 -1 0
BITMAP
86
CC
7C
30
00
00
30
30
30
30
30
30
30
30
30
20
20
20
20
20
30
30
ENDCHAR
STARTCHAR Iogonek
ENCODING 302
SWIDTH 153 0
DWIDTH 4 0
BBX 7 26 0 -5
BITMAP
60
20
20
20
20
20
20
20
20
20
20
20
20
20
20
20
20
20
20
30
60
40
C0
C0
C6
7C
ENDCHAR
STARTCHAR iogonek
ENCODING 303
SWIDTH 132 0
DWIDTH 4 0
BBX 7 27 -1 -6
BITMAP
20
20
00
00
00
30
30
30
30
30
30
30
30
30
20
20
20
20
20
30
30
60
40
C0
C0
CE
7C
ENDCHAR
STARTCHAR Idotaccent
ENCODING 304
SWIDTH 153 0
DWIDTH 4 0
BBX 2 25 1 0
BITMAP
C0
C0
00
00
C0
C0
C0
C0
40
40
40
40
40
40
40
40
40
40
40
40
40
40
40
40
40
ENDCHAR
STARTCHAR dotlessi
ENCODING 305
SWIDTH 132 0
DWIDTH 4 0
BBX 2 16 1 0
BITMAP
C0
C0
C0
C0
C0
C0
C0
C0
C0
80
80
80
80
80
C0
C0
ENDCHAR
STARTCHAR Jcircumflex
ENCODING 308
SWIDTH 371 0
DWIDTH 10 0
BBX 12 29 0 -2
BITMAP
0600
0700
0D80
08C0
1840
1030
3030
0100
0100
0100
0100
0100
0180
0180
0180
0180
0180
0080
0080
0080
0080
0080
0080
8080
4080
4080
2080
3B80
0E00
ENDCHAR
STARTCHAR jcircumflex
ENCODING 309
SWIDTH 112 0
DWIDTH 3 0
BBX 11 35 -5 -9
BITMAP
0600
0700
0900
1880
1040
3060
2020
0000
0000
0000
0000
0000
0200
0200
0200
0200
0200
0200
0200
0200
0200
0300
0300
0300
0300
0300
0300
0300
0100
0300
0300
8300
C200
6600
1C00
ENDCHAR
STARTCHAR Kcommaaccent
ENCODING 310
SWIDTH 524 0
DWIDTH 15 0
BBX 14 28 1 -9
BITMAP
8000
8040
C080
C180
C300
4200
4600
4C00
4800
5800
5000
7000
6000
6000
7FFC
6000
2000
2000
2000
0000
0000
0000
0600
0600
0600
0600
0600
0400
ENDCHAR
STARTCHAR kcommaaccent
ENCODING 311
SWIDTH 428 0
DWIDTH 12 0
BBX 10 30 1 -9
BITMAP
C000
C000
C000
C000
C040
C0C0
C0C0
C180
C380
C300
C600
CE00
CC00
D800
F000
E000
E000
F800
8F00
83C0
8040
8000
0000
0000
0C00
0C00
0C00
0C00
0800
0800
ENDCHAR
STARTCHAR Lacute
ENCODING 313
SWIDTH 537 0
DWIDTH 15 0
BBX 14 20 1 0
BITMAP
0180
0300
8600
C200
C000
C000
C000
C000
C000
C000
C000
C000
C000
C000
C01C
C070
C1C0
CF00
FC00
F000
ENDCHAR
STARTCHAR lacute
ENCODING 314
SWIDTH 137 0
DWIDTH 4 0
BBX 4 30 0 1
BITMAP
30
60
C0
40
00
00
00
40
40
40
40
40
40
40
60
60
60
60
20
20
20
20
20
20
20
20
20
60
60
60
ENDCHAR
STARTCHAR Lcommaaccent
ENCODING 315
SWIDTH 537 0
DWIDTH 15 0
BBX 14 27 1 -9
BITMAP
8000
C000
C000
C000
C000
C000
C000
C000
C000
C000
C000
C000
C01C
C070
C1C0
CF00
FC00
F000
0000
0000
0000
0600
0600
0200
0200
0200
0600
ENDCHAR
STARTCHAR lcommaaccent
ENCODING 316
SWIDTH 137 0
DWIDTH 4 0
BBX 2 33 1 -9
BITMAP
80
80
80
80
80
80
80
C0
C0
C0
C0
40
40
40
40
40
40
40
40
40
C0
C0
C0
00
00
00
00
C0
C0
C0
C0
80
80
ENDCHAR
STARTCHAR Lcaron
ENCODING 317
SWIDTH 537 0
DWIDTH 15 0
BBX 14 25 1 0
BITMAP
40C0
2180
3300
1C00
0800
0000
0000
8000
C000
C000
C000
C000
C000
C000
C000
C000
C000
C000
C000
C01C
C070
C1C0
CF00
FC00
F000
ENDCHAR
STARTCHAR Ldot
ENCODING 319
SWIDTH 537 0
DWIDTH 15 0
BBX 14 18 1 0
BITMAP
8000
C000
C000
C000
C000
C000
C000
C000
C000
C000
C700
C200
C01C
C070
C1C0
CF00
FC00
F000
ENDCHAR
STARTCHAR ldot
ENCODING 320
SWIDTH 267 0
DWIDTH 8 0
BBX 6 23 1 1
BITMAP
80
80
80
80
80
80
80
C0
C0
C0
C0
40
40
40
40
40
4C
58
40
40
C0
C0
C0
ENDCHAR
STARTCHAR Lslash
ENCODING 321
SWIDTH 537 0
DWIDTH 15 0
BBX 16 18 -1 0
BITMAP
2000
3000
3000
3000
3000
3000
3000
3000
3040
33C0
3F00
F800
3007
301C
3070
33C0
3F00
3C00
ENDCHAR
STARTCHAR lslash
ENCODING 322
SWIDTH 137 0
DWIDTH 4 0
BBX 10 23 -3 1
BITMAP
0800
0800
0800
0800
0800
0800
0800
0C00
0C00
0C00
0C00
0400
0400
0400
0400
05C0
0F80
3C00
E400
0400
0C00
0C00
0C00
ENDCHAR
STARTCHAR Nacute
ENCODING 323
SWIDTH 541 0
DWIDTH 15 0
BBX 13 23 1 0
BITMAP
0600
0E00
0C30
0830
0030
8030
C010
E010
F010
F810
D810
CC10
4610
4310
4110
4190
40D0
6050
6030
6038
6018
6018
2000
ENDCHAR
STARTCHAR nacute
ENCODING 324
SWIDTH 483 0
DWIDTH 14 0
BBX 12 21 1 0
BITMAP
0200
0600
0C00
0800
0000
83C0
87C0
8660
CC60
CC20
C820
D820
D820
D020
D020
F020
6020
6020
6020
6030
6000
ENDCHAR
STARTCHAR Ncommaaccent
ENCODING 325
SWIDTH 541 0
DWIDTH 15 0
BBX 13 30 1 -9
BITMAP
0030
0030
0030
8030
C010
E010
F010
F810
D810
CC10
4610
4310
4110
4190
40D0
6050
6030
6038
6018
6018
2000
0000
0000
0000
0600
0600
0200
0200
0200
0200
ENDCHAR
STARTCHAR ncommaaccent
ENCODING 326
SWIDTH 483 0
DWIDTH 14 0
BBX 12 25 1 -9
BITMAP
83C0
87C0
8660
CC60
CC20
C820
D820
D820
D020
D020
F020
6020
6020
6020
6030
6000
0000
0000
0000
0400
0600
0600
0400
0400
0400
ENDCHAR
STARTCHAR Ncaron
ENCODING 327
SWIDTH 541 0
DWIDTH 15 0
BBX 13 25 1 0
BITMAP
2060
10C0
1980
0E00
0430
0030
0030
8030
C010
E010
F010
F810
D810
CC10
4610
4310
4110
4190
40D0
6050
6030
6038
6018
6018
2000
ENDCHAR
STARTCHAR ncaron
ENCODING 328
SWIDTH 483 0
DWIDTH 14 0
BBX 12 22 1 0
BITMAP
6040
3080
1100
0E00
0C00
0000
83C0
87C0
8660
CC60
CC20
C820
D820
D820
D020
D020
F020
6020
6020
6020
6030
6000
ENDCHAR
STARTCHAR napostrophe
ENCODING 329
SWIDTH 483 0
DWIDTH 14 0
BBX 12 24 1 0
BITMAP
3000
3000
1000
1000
1000
3000
0000
0000
83C0
87C0
8660
CC60
CC20
C820
D820
D820
D020
D020
F020
6020
6020
6020
6030
6000
ENDCHAR
STARTCHAR Omacron
ENCODING 332
SWIDTH 382 0
DWIDTH 11 0
BBX 12 23 0 0
BITMAP
00F0
3FF0
0000
0000
0700
0F80
18C0
10C0
3040
2040
6040
6040
6040
4040
40C0
40C0
C0C0
C080
C180
4100
6300
3E00
3C00
ENDCHAR
STARTCHAR omacron
ENCODING 333
SWIDTH 266 0
DWIDTH 7 0
BBX 10 21 -1 0
BITMAP
03C0
FFC0
0000
0000
0000
0000
1C00
1E00
3200
2300
2100
2100
2100
2300
6300
2300
2300
2200
2600
3C00
3800
ENDCHAR
STARTCHAR Obreve
ENCODING 334
SWIDTH 382 0
DWIDTH 11 0
BBX 10 24 0 0
BITMAP
0080
3180
1B00
0E00
0000
0700
0F80
18C0
10C0
3040
2040
6040
6040
6040
4040
40C0
40C0
C0C0
C080
C180
4100
6300
3E00
3C00
ENDCHAR
STARTCHAR obreve
ENCODING 335
SWIDTH 266 0
DWIDTH 7 0
BBX 8 21 0 0
BITMAP
03
42
7E
3C
00
00
38
3C
64
46
42
42
42
46
C6
46
46
44
4C
78
70
ENDCHAR
STARTCHAR Ohungarumlaut
ENCODING 336
SWIDTH 382 0
DWIDTH 11 0
BBX 11 24 0 0
BITMAP
0120
0360
06C0
0480
0000
0700
0F80
18C0
10C0
3040
2040
6040
6040
6040
4040
40C0
40C0
C0C0
C080
C180
4100
6300
3E00
3C00
ENDCHAR
STARTCHAR ohungarumlaut
ENCODING 337
SWIDTH 266 0
DWIDTH 7 0
BBX 7 21 0 0
BITMAP
1A
36
6C
48
00
00
38
3C
64
46
42
42
42
46
C6
46
46
44
4C
78
70
ENDCHAR
STARTCHAR OE
ENCODING 338
SWIDTH 732 0
DWIDTH 21 0
BBX 20 20 0 0
BITMAP
0040C0
07C780
0FDE00
18F800
10E000
304000
204000
6040C0
604180
604700
407C00
40F000
40E000
C0E010
C0E070
C1E0C0
416380
636600
3E7C00
3C7000
ENDCHAR
STARTCHAR oe
ENCODING 339
SWIDTH 628 0
DWIDTH 18 0
BBX 18 15 0 0
BITMAP
383C00
3C7600
64C600
46C600
439C00
43F000
43C000
4780C0
C70080
470180
470300
450600
4D0C00
78F800
706000
ENDCHAR
STARTCHAR Racute
ENCODING 340
SWIDTH 503 0
DWIDTH 14 0
BBX 13 26 1 0
BITMAP
0180
0300
0700
0200
C000
CFE0
F830
E010
C030
C060
C180
C300
CC00
F800
E000
C000
F000
BC00
8F00
83C0
80F0
8038
8000
8000
8000
8000
ENDCHAR
STARTCHAR racute
ENCODING 341
SWIDTH 396 0
DWIDTH 11 0
BBX 9 20 1 0
BITMAP
0600
0C00
1C00
0800
0000
0000
8780
8E00
9800
D800
D000
D000
7000
7000
7000
7000
7000
7000
3000
2000
ENDCHAR
STARTCHAR Rcommaaccent
ENCODING 342
SWIDTH 503 0
DWIDTH 14 0
BBX 13 31 1 -9
BITMAP
C000
CFE0
F830
E010
C030
C060
C180
C300
CC00
F800
E000
C000
F000
BC00
8F00
83C0
80F0
8038
8000
8000
8000
8000
0000
0000
0000
0600
0600
0600
0600
0400
0400
ENDCHAR
STARTCHAR rcommaaccent
ENCODING 343
SWIDTH 396 0
DWIDTH 11 0
BBX 9 23 1 -9
BITMAP
8780
8E00
9800
D800
D000
D000
7000
7000
7000
7000
7000
7000
3000
2000
0000
0000
0000
1800
1800
0800
0800
0800
0800
ENDCHAR
STARTCHAR Rcaron
ENCODING 344
SWIDTH 503 0
DWIDTH 14 0
BBX 13 28 1 0
BITMAP
3020
1040
0980
0700
0600
0000
C000
CFE0
F830
E010
C030
C060
C180
C300
CC00
F800
E000
C000
F000
BC00
8F00
83C0
80F0
8038
8000
8000
8000
8000
ENDCHAR
STARTCHAR rcaron
ENCODING 345
SWIDTH 396 0
DWIDTH 11 0
BBX 9 22 1 0
BITMAP
C080
4100
2600
1C00
1800
0000
0000
0000
8780
8E00
9800
D800
D000
D000
7000
7000
7000
7000
7000
7000
3000
2000
ENDCHAR
STARTCHAR Sacute
ENCODING 346
SWIDTH 541 0
DWIDTH 15 0
BBX 15 24 0 1
BITMAP
00C0
0180
0300
0100
0000
01F0
0660
0C00
1800
3000
6000
4000
C000
C000
C000
6000
3C00
07F8
000C
0006
001C
0070
03C0
1F00
ENDCHAR
STARTCHAR sacute
ENCODING 347
SWIDTH 366 0
DWIDTH 10 0
BBX 9 21 1 -1
BITMAP
0400
0C00
1800
1000
0000
0000
0E00
3200
6000
C000
C000
8000
8700
FF80
F180
0180
0300
0600
0C00
3800
2000
ENDCHAR
STARTCHAR Scircumflex
ENCODING 348
SWIDTH 541 0
DWIDTH 15 0
BBX 15 28 0 1
BITMAP
0100
0380
0240
0660
0430
0818
1808
0000
0000
01F0
0660
0C00
1800
3000
6000
4000
C000
C000
C000
6000
3C00
07F8
000C
0006
001C
0070
03C0
1F00
ENDCHAR
STARTCHAR scircumflex
ENCODING 349
SWIDTH 366 0
DWIDTH 10 0
BBX 9 23 1 -1
BITMAP
1800
1C00
2400
6200
4300
C180
8080
0000
0E00
3200
6000
C000
C000
8000
8700
FF80
F180
0180
0300
0600
0C00
3800
2000
ENDCHAR
STARTCHAR Scedilla
ENCODING 350
SWIDTH 541 0
DWIDTH 15 0
BBX 15 27 0 -7
BITMAP
01F0
0660
0C00
1800
3000
6000
4000
C000
C000
C000
6000
3C00
07F8
000C
0006
001C
0070
03C0
1F40
0040
0040
0070
003C
000E
0006
000E
007E
ENDCHAR
STARTCHAR scedilla
ENCODING 351
SWIDTH 366 0
DWIDTH 10 0
BBX 9 23 1 -9
BITMAP
0E00
3200
6000
C000
C000
8000
8700
FF80
F180
0180
0300
0600
0C00
3800
3000
1000
1800
1E00
0780
0180
0180
1F80
1C00
ENDCHAR
STARTCHAR Scaron
ENCODING 352
SWIDTH 541 0
DWIDTH 15 0
BBX 15 24 0 1
BITMAP
1810
0820
04C0
0380
0300
01F0
0660
0C00
1800
3000
6000
4000
C000
C000
C000
6000
3C00
07F8
000C
0006
001C
0070
03C0
1F00
ENDCHAR
STARTCHAR scaron
ENCODING 353
SWIDTH 366 0
DWIDTH 10 0
BBX 9 22 1 -1
BITMAP
8180
4300
6600
3800
1000
0000
0000
0E00
3200
6000
C000
C000
8000
8700
FF80
F180
0180
0300
0600
0C00
3800
2000
ENDCHAR
STARTCHAR Tcommaaccent
ENCODING 354
SWIDTH 595 0
DWIDTH 17 0
BBX 20 29 0 -9
BITMAP
004070
00FFC0
7FE000
F04000
004000
006000
006000
006000
006000
006000
002000
002000
002000
003000
003000
003000
003000
003000
003000
001000
000000
000000
000000
001800
001800
001800
001800
001000
001000
ENDCHAR
STARTCHAR tcommaaccent
ENCODING 355
SWIDTH 268 0
DWIDTH 8 0
BBX 9 30 -1 -9
BITMAP
1000
1000
1000
1000
1000
1080
1F80
3E00
F000
F000
1000
1000
1000
1000
1000
1000
1000
1000
1000
1000
1800
0800
0000
0000
0C00
0C00
0C00
0800
0800
0800
ENDCHAR
STARTCHAR Tcaron
ENCODING 356
SWIDTH 595 0
DWIDTH 17 0
BBX 20 27 0 0
BITMAP
030200
018400
008800
007000
006000
000000
000000
004070
00FFC0
7FE000
F04000
004000
006000
006000
006000
006000
006000
002000
002000
002000
003000
003000
003000
003000
003000
003000
001000
ENDCHAR
STARTCHAR Tbar
ENCODING 358
SWIDTH 595 0
DWIDTH 17 0
BBX 20 20 0 0
BITMAP
004070
00FFC0
7FE000
F04000
004000
004000
007E00
0FFC00
006000
006000
002000
002000
002000
003000
003000
003000
003000
003000
003000
001000
ENDCHAR
STARTCHAR Utilde
ENCODING 360
SWIDTH 450 0
DWIDTH 13 0
BBX 11 27 1 -3
BITMAP
3C20
6C60
C6C0
4380
0100
0000
0000
8060
C060
C060
C060
C0E0
C0E0
C0C0
C0C0
C0C0
C1C0
C1C0
C140
C360
C260
4660
7C20
1820
0020
0020
0020
ENDCHAR
STARTCHAR utilde
ENCODING 361
SWIDTH 387 0
DWIDTH 11 0
BBX 11 21 0 -1
BITMAP
7840
CCE0
CCC0
8780
0100
0000
4000
4080
4180
4180
4180
6180
6180
6180
6180
6380
6380
2680
3CC0
38C0
0040
ENDCHAR
STARTCHAR Umacron
ENCODING 362
SWIDTH 450 0
DWIDTH 13 0
BBX 11 24 1 -3
BITMAP
03C0
FFC0
0000
0000
8060
C060
C060
C060
C0E0
C0E0
C0C0
C0C0
C0C0
C1C0
C1C0
C140
C360
C260
4660
7C20
1820
0020
0020
0020
ENDCHAR
STARTCHAR umacron
ENCODING 363
SWIDTH 387 0
DWIDTH 11 0
BBX 10 22 0 -1
BITMAP
03C0
FFC0
0000
0000
0000
0000
0000
4000
4080
4180
4180
4180
6180
6180
6180
6180
6380
6380
2680
3CC0
38C0
0040
ENDCHAR
STARTCHAR Ubreve
ENCODING 364
SWIDTH 450 0
DWIDTH 13 0
BBX 11 24 1 -3
BITMAP
0080
3180
1B00
0E00
8060
C060
C060
C060
C0E0
C0E0
C0C0
C0C0
C0C0
C1C0
C1C0
C140
C360
C260
4660
7C20
1820
0020
0020
0020
ENDCHAR
STARTCHAR ubreve
ENCODING 365
SWIDTH 387 0
DWIDTH 11 0
BBX 9 22 1 -1
BITMAP
0100
6300
3700
1E00
0000
0000
0000
8000
8100
8300
8300
8300
C300
C300
C300
C300
C700
C700
4D00
7980
7180
0080
ENDCHAR
STARTCHAR Uring
ENCODING 366
SWIDTH 450 0
DWIDTH 13 0
BBX 11 26 1 -3
BITMAP
1E00
3300
2100
3300
1E00
0000
8060
C060
C060
C060
C0E0
C0E0
C0C0
C0C0
C0C0
C1C0
C1C0
C140
C360
C260
4660
7C20
1820
0020
0020
0020
ENDCHAR
STARTCHAR uring
ENCODING 367
SWIDTH 387 0
DWIDTH 11 0
BBX 9 20 1 -1
BITMAP
1E00
7600
6300
6300
3C00
8000
8100
8300
8300
8300
C300
C300
C300
C300
C700
C700
4D00
7980
7180
0080
ENDCHAR
STARTCHAR Uhungarumlaut
ENCODING 368
SWIDTH 450 0
DWIDTH 13 0
BBX 11 26 1 -3
BITMAP
0D00
1B00
3B00
1600
0000
0000
8060
C060
C060
C060
C0E0
C0E0
C0C0
C0C0
C0C0
C1C0
C1C0
C140
C360
C260
4660
7C20
1820
0020
0020
0020
ENDCHAR
STARTCHAR uhungarumlaut
ENCODING 369
SWIDTH 387 0
DWIDTH 11 0
BBX 9 20 1 -1
BITMAP
1200
3600
6C00
4800
0000
8000
8100
8300
8300
8300
C300
C300
C300
C300
C700
C700
4D00
7980
7180
0080
ENDCHAR
STARTCHAR Uogonek
ENCODING 370
SWIDTH 450 0
DWIDTH 13 0
BBX 14 25 1 -8
BITMAP
8060
C060
C060
C060
C0E0
C0E0
C0C0
C0C0
C0C0
C1C0
C1C0
C140
C360
C260
4660
7C20
1820
0060
00E0
01A0
0180
0100
018C
00F8
0070
ENDCHAR
STARTCHAR uogonek
ENCODING 371
SWIDTH 387 0
DWIDTH 11 0
BBX 11 21 1 -7
BITMAP
8000
8100
8300
8300
8300
C300
C300
C300
C300
C700
C700
4D00
7980
7180
0300
0600
0400
0400
0460
07E0
0180
ENDCHAR
STARTCHAR Wcircumflex
ENCODING 372
SWIDTH 878 0
DWIDTH 25 0
BBX 24 29 0 0
BITMAP
001000
003800
002400
006600
004300
008180
018080
000000
000002
000003
000002
000406
C00C06
600C04
601E04
20160C
30160C
303208
102308
182308
186118
186198
0C4090
0C40D0
0CC070
0E8070
078020
078000
030000
ENDCHAR
STARTCHAR wcircumflex
ENCODING 373
SWIDTH 566 0
DWIDTH 16 0
BBX 14 26 1 0
BITMAP
0600
0700
0D80
08C0
1860
1030
3030
0000
0000
0000
0000
0000
8608
C70C
C50C
458C
648C
64CC
246C
3C2C
1C3C
1C1C
1C1C
0C0C
0C00
0400
ENDCHAR
STARTCHAR Ycircumflex
ENCODING 374
SWIDTH 483 0
DWIDTH 14 0
BBX 13 30 0 0
BITMAP
0600
0700
0D80
08C0
1840
1030
2030
0000
0008
0008
0018
0010
8010
4030
6020
3020
3860
1860
0C40
06C0
0380
0180
0180
0100
0100
0300
0200
0600
0600
0400
ENDCHAR
STARTCHAR ycircumflex
ENCODING 375
SWIDTH 363 0
DWIDTH 10 0
BBX 10 36 0 -10
BITMAP
0800
1C00
1200
2300
2180
40C0
C040
0000
0000
0000
0000
0080
00C0
40C0
60C0
60C0
30C0
30C0
1880
0C80
0C80
0680
0380
0380
0180
0180
0080
0080
0080
0180
0180
0180
0180
0180
0180
0100
ENDCHAR
STARTCHAR Ydieresis
ENCODING 376
SWIDTH 483 0
DWIDTH 14 0
BBX 13 22 0 0
BITMAP
0008
0CC8
0C98
0010
8010
4030
6020
3020
3860
1860
0C40
06C0
0380
0180
0180
0100
0100
0300
0200
0600
0600
0400
ENDCHAR
STARTCHAR Zacute
ENCODING 377
SWIDTH 670 0
DWIDTH 19 0
BBX 17 25 1 0
BITMAP
00C000
018000
030000
010000
000000
000000
FFFE00
000C00
001C00
001800
003000
006000
00C000
01C000
018000
030000
060000
0C0000
1C0000
180000
300000
600000
C00000
FFFF80
FFFC00
ENDCHAR
STARTCHAR zacute
ENCODING 378
SWIDTH 618 0
DWIDTH 17 0
BBX 17 20 1 0
BITMAP
00C000
01C000
018000
010000
000000
000000
01C000
07C000
3CC000
E18000
018000
030000
030000
060000
060000
040000
0C0300
0C7F80
0FF800
1F0000
ENDCHAR
STARTCHAR Zdotaccent
ENCODING 379
SWIDTH 670 0
DWIDTH 19 0
BBX 17 22 1 0
BITMAP
018000
008000
000000
FFFE00
000C00
001C00
001800
003000
006000
00C000
01C000
018000
030000
060000
0C0000
1C0000
180000
300000
600000
C00000
FFFF80
FFFC00
ENDCHAR
STARTCHAR zdotaccent
ENCODING 380
SWIDTH 618 0
DWIDTH 17 0
BBX 17 17 1 0
BITMAP
018000
010000
000000
01C000
07C000
3CC000
E18000
018000
030000
030000
060000
060000
040000
0C0300
0C7F80
0FF800
1F0000
ENDCHAR
STARTCHAR Zcaron
ENCODING 381
SWIDTH 670 0
DWIDTH 19 0
BBX 17 26 1 0
BITMAP
0C0C00
061800
032000
01C000
008000
000000
000000
FFFE00
000C00
001C00
001800
003000
006000
00C000
01C000
018000
030000
060000
0C0000
1C0000
180000
300000
600000
C00000
FFFF80
FFFC00
ENDCHAR
STARTCHAR zcaron
ENCODING 382
SWIDTH 618 0
DWIDTH 17 0
BBX 17 20 1 0
BITMAP
303000
184000
0C8000
070000
020000
000000
01C000
07C000
3CC000
E18000
018000
030000
030000
060000
060000
040000
0C0300
0C7F80
0FF800
1F0000
ENDCHAR
STARTCHAR florin
ENCODING 402
SWIDTH 345 0
DWIDTH 10 0
BBX 10 32 -1 -7
BITMAP
0700
0700
0D80
0C80
0C00
0C00
0C00
0800
0800
0800
0800
09C0
0FC0
1C00
3800
2800
0800
0800
0800
0800
0C00
0C00
0C00
0C00
0C00
0C00
0C00
0C00
0C00
0C00
FC00
7800
ENDCHAR
STARTCHAR AEacute
ENCODING 508
SWIDTH 708 0
DWIDTH 20 0
BBX 19 25 1 1
BITMAP
018000
038000
030000
020000
000000
200080
310700
31BC00
79F000
69C000
698000
6D8000
658000
458300
468C00
42B800
43E000
C38000
C78000
FB80E0
E18180
C18300
808C00
80F800
80E000
ENDCHAR
STARTCHAR aeacute
ENCODING 509
SWIDTH 705 0
DWIDTH 20 0
BBX 19 20 0 0
BITMAP
003000
007000
006000
004000
000E00
071F00
0FB180
1DA180
19E300
31EC00
33F800
63E000
67C020
46C060
CCC0C0
CCC180
98C300
F0EE00
E0FC00
408000
ENDCHAR
STARTCHAR Oslashacute
ENCODING 510
SWIDTH 382 0
DWIDTH 11 0
BBX 10 26 0 -2
BITMAP
0100
0300
0600
0400
0080
0780
0F80
19C0
11C0
3340
2240
6240
6640
6440
4440
4CC0
48C0
C8C0
C880
D980
5100
7300
3E00
3C00
2000
2000
ENDCHAR
STARTCHAR oslashacute
ENCODING 511
SWIDTH 266 0
DWIDTH 7 0
BBX 8 23 0 -2
BITMAP
0C
1C
18
10
01
02
3A
3E
64
46
4A
4A
5A
56
D6
76
66
64
6C
78
70
80
80
ENDCHAR
STARTCHAR Scommaaccent
ENCODING 536
SWIDTH 541 0
DWIDTH 15 0
BBX 15 29 0 -9
BITMAP
01F0
0660
0C00
1800
3000
6000
4000
C000
C000
C000
6000
3C00
07F8
000C
0006
001C
0070
03C0
1F00
0000
0000
0000
0000
0300
0300
0100
0100
0100
0100
ENDCHAR
STARTCHAR scommaaccent
ENCODING 537
SWIDTH 366 0
DWIDTH 10 0
BBX 9 23 1 -9
BITMAP
0E00
3200
6000
C000
C000
8000
8700
FF80
F180
0180
0300
0600
0C00
3800
2000
0000
0000
1800
1800
1800
1800
1800
1000
ENDCHAR
STARTCHAR circumflex
ENCODING 710
SWIDTH 390 0
DWIDTH 11 0
BBX 10 7 1 19
BITMAP
1800
1C00
3600
2200
4100
C1C0
8080
ENDCHAR
STARTCHAR caron
ENCODING 711
SWIDTH 390 0
DWIDTH 11 0
BBX 10 5 1 17
BITMAP
C0C0
2180
3300
1C00
0800
ENDCHAR
STARTCHAR breve
ENCODING 728
SWIDTH 390 0
DWIDTH 11 0
BBX 7 4 2 17
BITMAP
02
86
7C
38
ENDCHAR
STARTCHAR dotaccent
ENCODING 729
SWIDTH 128 0
DWIDTH 4 0
BBX 2 2 1 15
BITMAP
C0
80
ENDCHAR
STARTCHAR ring
ENCODING 730
SWIDTH 266 0
DWIDTH 7 0
BBX 7 5 0 14
BITMAP
3C
66
C2
46
7C
ENDCHAR
STARTCHAR ogonek
ENCODING 731
SWIDTH 366 0
DWIDTH 10 0
BBX 6 8 3 -7
BITMAP
20
60
C0
80
80
84
FC
78
ENDCHAR
STARTCHAR tilde
ENCODING 732
SWIDTH 458 0
DWIDTH 13 0
BBX 11 5 1 15
BITMAP
7840
CCE0
CCC0
8780
0100
ENDCHAR
STARTCHAR hungarumlaut
ENCODING 733
SWIDTH 239 0
DWIDTH 7 0
BBX 6 4 0 13
BITMAP
34
6C
DC
58
ENDCHAR
STARTCHAR Wgrave
ENCODING 7808
SWIDTH 878 0
DWIDTH 25 0
BBX 24 27 0 0
BITMAP
001000
001800
000C00
000C00
000000
000000
000002
000003
000002
000406
C00C06
600C04
601E04
20160C
30160C
303208
102308
182308
186118
186198
0C4090
0C40D0
0CC070
0E8070
078020
078000
030000
ENDCHAR
STARTCHAR wgrave
ENCODING 7809
SWIDTH 566 0
DWIDTH 16 0
BBX 14 21 1 0
BITMAP
0400
0600
0600
0300
0000
0000
0000
8608
C70C
C50C
458C
648C
64CC
246C
3C2C
1C3C
1C1C
1C1C
0C0C
0C00
0400
ENDCHAR
STARTCHAR Wacute
ENCODING 7810
SWIDTH 878 0
DWIDTH 25 0
BBX 24 25 0 0
BITMAP
000800
001800
003000
002000
000002
000003
000002
000406
C00C06
600C04
601E04
20160C
30160C
303208
102308
182308
186118
186198
0C4090
0C40D0
0CC070
0E8070
078020
078000
030000
ENDCHAR
STARTCHAR wacute
ENCODING 7811
SWIDTH 566 0
DWIDTH 16 0
BBX 14 20 1 0
BITMAP
0080
0180
0300
0200
0000
0000
8608
C70C
C50C
458C
648C
64CC
246C
3C2C
1C3C
1C1C
1C1C
0C0C
0C00
0400
ENDCHAR
STARTCHAR Wdieresis
ENCODING 7812
SWIDTH 878 0
DWIDTH 25 0
BBX 24 24 0 0
BITMAP
003200
003600
000000
000002
000003
000002
000406
C00C06
600C04
601E04
20160C
30160C
303208
102308
182308
186118
186198
0C4090
0C40D0
0CC070
0E8070
078020
078000
030000
ENDCHAR
STARTCHAR wdieresis
ENCODING 7813
SWIDTH 566 0
DWIDTH 16 0
BBX 14 21 1 0
BITMAP
0CC0
0CC0
0000
0000
0000
0000
0000
8608
C70C
C50C
458C
648C
64CC
246C
3C2C
1C3C
1C1C
1C1C
0C0C
0C00
0400
ENDCHAR
STARTCHAR Ygrave
ENCODING 7922
SWIDTH 483 0
DWIDTH 14 0
BBX 13 28 0 0
BITMAP
0400
0600
0300
0300
0000
0000
0008
0008
0018
0010
8010
4030
6020
3020
3860
1860
0C40
06C0
0380
0180
0180
0100
0100
0300
0200
0600
0600
0400
ENDCHAR
STARTCHAR ygrave
ENCODING 7923
SWIDTH 363 0
DWIDTH 10 0
BBX 9 31 1 -10
BITMAP
2000
3000
1800
1800
0000
0000
0100
0180
8180
C180
C180
6180
6180
3100
1900
1900
0D00
0700
0700
0300
0300
0100
0100
0100
0300
0300
0300
0300
0300
0300
0200
ENDCHAR
STARTCHAR endash
ENCODING 8211
SWIDTH 399 0
DWIDTH 11 0
BBX 11 4 0 5
BITMAP
01E0
07C0
3E00
E000
ENDCHAR
STARTCHAR emdash
ENCODING 8212
SWIDTH 549 0
DWIDTH 15 0
BBX 14 4 0 5
BITMAP
0004
01FC
3FC0
F000
ENDCHAR
STARTCHAR quoteleft
ENCODING 8216
SWIDTH 155 0
DWIDTH 4 0
BBX 2 9 1 9
BITMAP
80
C0
C0
C0
C0
C0
C0
40
40
ENDCHAR
STARTCHAR quoteright
ENCODING 8217
SWIDTH 155 0
DWIDTH 4 0
BBX 2 9 1 9
BITMAP
80
C0
C0
C0
C0
C0
C0
40
40
ENDCHAR
STARTCHAR quotesinglbase
ENCODING 8218
SWIDTH 155 0
DWIDTH 4 0
BBX 2 8 1 0
BITMAP
80
C0
C0
C0
40
40
40
40
ENDCHAR
STARTCHAR quotedblleft
ENCODING 8220
SWIDTH 212 0
DWIDTH 6 0
BBX 4 8 1 14
BITMAP
90
90
90
90
90
90
90
40
ENDCHAR
STARTCHAR quotedblright
ENCODING 8221
SWIDTH 212 0
DWIDTH 6 0
BBX 4 8 1 14
BITMAP
90
90
90
90
90
90
90
40
ENDCHAR
STARTCHAR quotedblbase
ENCODING 8222
SWIDTH 212 0
DWIDTH 6 0
BBX 4 8 1 0
BITMAP
90
90
90
90
90
D0
D0
40
ENDCHAR
STARTCHAR dagger
ENCODING 8224
SWIDTH 268 0
DWIDTH 8 0
BBX 9 22 -1 -1
BITMAP
1000
1000
1000
1000
1000
1080
1F80
3E00
F000
F000
1000
1000
1000
1000
1000
1000
1000
1000
1000
1000
1800
0800
ENDCHAR
STARTCHAR daggerdbl
ENCODING 8225
SWIDTH 326 0
DWIDTH 9 0
BBX 9 22 0 -1
BITMAP
1800
1800
1800
1800
1800
1080
1F80
3E00
F800
7000
1F80
3E00
7800
1800
1800
1800
1800
1800
1800
1800
1800
0800
ENDCHAR
STARTCHAR bullet
ENCODING 8226
SWIDTH 189 0
DWIDTH 5 0
BBX 4 4 1 6
BITMAP
60
F0
E0
40
ENDCHAR
STARTCHAR ellipsis
ENCODING 8230
SWIDTH 387 0
DWIDTH 11 0
BBX 9 2 1 0
BITMAP
C980
D980
ENDCHAR
STARTCHAR guilsinglleft
ENCODING 8249
SWIDTH 409 0
DWIDTH 11 0
BBX 10 14 1 4
BITMAP
0040
00C0
0180
0300
0E00
1C00
3000
6000
C000
7000
3800
0E00
0780
01C0
ENDCHAR
STARTCHAR guilsinglright
ENCODING 8250
SWIDTH 450 0
DWIDTH 13 0
BBX 10 15 1 3
BITMAP
E000
7000
1C00
0700
01C0
00C0
00C0
0180
0300
0600
0C00
3800
7000
E000
8000
ENDCHAR
STARTCHAR fraction
ENCODING 8260
SWIDTH 306 0
DWIDTH 9 0
BBX 8 22 0 -2
BITMAP
03
03
02
02
06
04
04
0C
08
08
18
10
10
10
30
20
20
60
40
40
C0
80
ENDCHAR
STARTCHAR Euro
ENCODING 8364
SWIDTH 589 0
DWIDTH 17 0
BBX 16 20 0 0
BITMAP
00F0
0198
0108
0300
0200
0600
0400
0400
0FC0
7F00
6800
0810
0BE0
1E00
F800
0803
0806
080E
0E78
07F0
ENDCHAR
STARTCHAR trademark
ENCODING 8482
SWIDTH 1278 0
DWIDTH 36 0
BBX 35 21 0 0
BITMAP
0000700180
0040780180
00FFFC0380
7FE02C0280
F040260280
0040260680
0060230480
0060330480
0060318C80
0060318880
006030C880
002010D880
00201070C0
00201070C0
0030102040
0030100040
0030100040
0030180040
0030180040
0030180060
0010180040
ENDCHAR
STARTCHAR minus
ENCODING 8722
SWIDTH 358 0
DWIDTH 10 0
BBX 8 2 1 7
BITMAP
3F
F8
ENDCHAR
STARTCHAR commaaccent
ENCODING 63171
SWIDTH 450 0
DWIDTH 13 0
BBX 2 6 5 -9
BITMAP
C0
C0
C0
C0
80
80
ENDCHAR
STARTCHAR fi
ENCODING 64257
SWIDTH 409 0
DWIDTH 11 0
BBX 9 25 1 0
BITMAP
1C00
1C00
3600
3200
3100
3180
3000
2000
2000
2080
2180
2780
3F80
7980
E180
A180
2180
2180
3180
3180
3080
3080
3080
3080
3080
ENDCHAR
STARTCHAR fl
ENCODING 64258
SWIDTH 416 0
DWIDTH 12 0
BBX 10 25 1 0
BITMAP
1C00
1C00
3780
3380
3180
3080
3080
2080
2080
2080
2080
2780
3F80
7880
E080
A080
2080
2080
3080
30C0
30C0
30C0
30C0
30C0
30C0
ENDCHAR
STARTCHAR .notdef
ENCODING -1
SWIDTH 450 0
DWIDTH 13 0
BBX 1 1 0 0
BITMAP
00
ENDCHAR
STARTCHAR .null
ENCODING -1
SWIDTH 0 0
DWIDTH 0 0
BBX 1 1 0 0
BITMAP
00
ENDCHAR
STARTCHAR nonmarkingreturn
ENCODING -1
SWIDTH 450 0
DWIDTH 13 0
BBX 1 1 0 0
BITMAP
00
ENDCHAR
ENDFONT
